BenchTwelve-Heavy.ufo
<glyph name="exclam" format="1">
  <advance width="455"/>
  <unicode hex="0021"/>
  <outline>
    <contour>
      <point x="142" y="0" type="curve" smooth="yes"/>
      <point x="309" y="0" type="line" smooth="yes"/>
      <point x="324" y="0"/>
      <point x="336" y="5"/>
      <point x="336" y="48" type="curve" smooth="yes"/>
      <point x="336" y="229" type="line" smooth="yes"/>
      <point x="336" y="272"/>
      <point x="324" y="276"/>
      <point x="309" y="276" type="curve" smooth="yes"/>
      <point x="142" y="276" type="line" smooth="yes"/>
      <point x="127" y="276"/>
      <point x="115" y="272"/>
      <point x="115" y="229" type="curve" smooth="yes"/>
      <point x="115" y="48" type="line" smooth="yes"/>
      <point x="115" y="5"/>
      <point x="127" y="0"/>
    </contour>
    <contour>
      <point x="201" y="521" type="curve" smooth="yes"/>
      <point x="256" y="521" type="line" smooth="yes"/>
      <point x="272" y="521"/>
      <point x="280" y="556"/>
      <point x="282" y="598" type="curve" smooth="yes"/>
      <point x="328" y="1455" type="line" smooth="yes"/>
      <point x="331" y="1498"/>
      <point x="318" y="1531"/>
      <point x="303" y="1531" type="curve" smooth="yes"/>
      <point x="154" y="1531" type="line" smooth="yes"/>
      <point x="139" y="1531"/>
      <point x="126" y="1498"/>
      <point x="128" y="1455" type="curve" smooth="yes"/>
      <point x="175" y="598" type="line" smooth="yes"/>
      <point x="177" y="556"/>
      <point x="186" y="521"/>
    </contour>
  </outline>
</glyph>
<glyph name="numbersign" format="1">
  <advance width="757"/>
  <unicode hex="0023"/>
  <outline>
    <contour>
      <point x="131" y="-138" type="curve" smooth="yes"/>
      <point x="227" y="-138" type="line" smooth="yes"/>
      <point x="234" y="-138"/>
      <point x="241" y="-124"/>
      <point x="243" y="-103" type="curve" smooth="yes"/>
      <point x="284" y="376" type="line"/>
      <point x="408" y="376" type="line"/>
      <point x="367" y="-103" type="line" smooth="yes"/>
      <point x="366" y="-120"/>
      <point x="370" y="-138"/>
      <point x="375" y="-138" type="curve" smooth="yes"/>
      <point x="468" y="-138" type="line" smooth="yes"/>
      <point x="475" y="-138"/>
      <point x="482" y="-124"/>
      <point x="484" y="-103" type="curve" smooth="yes"/>
      <point x="525" y="376" type="line"/>
      <point x="608" y="376" type="line" smooth="yes"/>
      <point x="623" y="376"/>
      <point x="632" y="390"/>
      <point x="632" y="432" type="curve" smooth="yes"/>
      <point x="632" y="472" type="line" smooth="yes"/>
      <point x="632" y="514"/>
      <point x="623" y="528"/>
      <point x="608" y="528" type="curve" smooth="yes"/>
      <point x="543" y="528" type="line"/>
      <point x="565" y="812" type="line"/>
      <point x="640" y="812" type="line" smooth="yes"/>
      <point x="654" y="812"/>
      <point x="663" y="826"/>
      <point x="663" y="868" type="curve" smooth="yes"/>
      <point x="663" y="912" type="line" smooth="yes"/>
      <point x="663" y="954"/>
      <point x="654" y="968"/>
      <point x="640" y="968" type="curve" smooth="yes"/>
      <point x="581" y="968" type="line"/>
      <point x="627" y="1475" type="line" smooth="yes"/>
      <point x="629" y="1492"/>
      <point x="625" y="1510"/>
      <point x="618" y="1510" type="curve" smooth="yes"/>
      <point x="527" y="1510" type="line" smooth="yes"/>
      <point x="519" y="1510"/>
      <point x="512" y="1496"/>
      <point x="511" y="1475" type="curve" smooth="yes"/>
      <point x="464" y="968" type="line"/>
      <point x="340" y="968" type="line"/>
      <point x="386" y="1475" type="line" smooth="yes"/>
      <point x="387" y="1492"/>
      <point x="383" y="1510"/>
      <point x="377" y="1510" type="curve" smooth="yes"/>
      <point x="282" y="1510" type="line" smooth="yes"/>
      <point x="275" y="1510"/>
      <point x="267" y="1496"/>
      <point x="265" y="1475" type="curve" smooth="yes"/>
      <point x="219" y="968" type="line"/>
      <point x="139" y="968" type="line" smooth="yes"/>
      <point x="125" y="968"/>
      <point x="116" y="954"/>
      <point x="116" y="912" type="curve" smooth="yes"/>
      <point x="116" y="868" type="line" smooth="yes"/>
      <point x="116" y="826"/>
      <point x="125" y="812"/>
      <point x="139" y="812" type="curve" smooth="yes"/>
      <point x="202" y="812" type="line"/>
      <point x="180" y="528" type="line"/>
      <point x="108" y="528" type="line" smooth="yes"/>
      <point x="93" y="528"/>
      <point x="85" y="514"/>
      <point x="85" y="472" type="curve" smooth="yes"/>
      <point x="85" y="432" type="line" smooth="yes"/>
      <point x="85" y="390"/>
      <point x="94" y="376"/>
      <point x="109" y="376" type="curve" smooth="yes"/>
      <point x="162" y="376" type="line"/>
      <point x="123" y="-103" type="line" smooth="yes"/>
      <point x="121" y="-120"/>
      <point x="125" y="-138"/>
    </contour>
    <contour>
      <point x="301" y="528" type="line"/>
      <point x="324" y="812" type="line"/>
      <point x="447" y="812" type="line"/>
      <point x="425" y="528" type="line"/>
    </contour>
  </outline>
</glyph>
<glyph name="quotesingle" format="1">
  <advance width="356"/>
  <unicode hex="0027"/>
  <outline>
    <contour>
      <point x="164" y="682" type="curve" smooth="yes"/>
      <point x="194" y="682" type="line" smooth="yes"/>
      <point x="209" y="682"/>
      <point x="216" y="716"/>
      <point x="219" y="758" type="curve" smooth="yes"/>
      <point x="264" y="1455" type="line" smooth="yes"/>
      <point x="266" y="1497"/>
      <point x="255" y="1531"/>
      <point x="240" y="1531" type="curve" smooth="yes"/>
      <point x="117" y="1531" type="line" smooth="yes"/>
      <point x="102" y="1531"/>
      <point x="89" y="1497"/>
      <point x="92" y="1455" type="curve" smooth="yes"/>
      <point x="137" y="758" type="line" smooth="yes"/>
      <point x="139" y="716"/>
      <point x="149" y="682"/>
    </contour>
  </outline>
</glyph>
<glyph name="comma" format="1">
  <advance width="451"/>
  <unicode hex="002C"/>
  <outline>
    <contour>
      <point x="129" y="-338" type="curve" smooth="yes"/>
      <point x="177" y="-315"/>
      <point x="294" y="-209"/>
      <point x="294" y="29" type="curve" smooth="yes"/>
      <point x="294" y="239" type="line" smooth="yes"/>
      <point x="294" y="282"/>
      <point x="282" y="297"/>
      <point x="268" y="297" type="curve" smooth="yes"/>
      <point x="125" y="297" type="line" smooth="yes"/>
      <point x="110" y="297"/>
      <point x="103" y="282"/>
      <point x="103" y="239" type="curve" smooth="yes"/>
      <point x="103" y="60" type="line" smooth="yes"/>
      <point x="103" y="22"/>
      <point x="110" y="0"/>
      <point x="124" y="0" type="curve" smooth="yes"/>
      <point x="174" y="0" type="line" smooth="yes"/>
      <point x="179" y="0"/>
      <point x="180" y="-11"/>
      <point x="180" y="-27" type="curve" smooth="yes"/>
      <point x="180" y="-89"/>
      <point x="161" y="-164"/>
      <point x="127" y="-200" type="curve" smooth="yes"/>
      <point x="105" y="-222"/>
      <point x="103" y="-221"/>
      <point x="103" y="-273" type="curve" smooth="yes"/>
      <point x="103" y="-294" type="line" smooth="yes"/>
      <point x="103" y="-330"/>
      <point x="117" y="-344"/>
    </contour>
  </outline>
</glyph>
<glyph name="hyphen" format="1">
  <advance width="603"/>
  <unicode hex="002D"/>
  <outline>
    <contour>
      <point x="126" y="524" type="curve" smooth="yes"/>
      <point x="474" y="524" type="line" smooth="yes"/>
      <point x="489" y="524"/>
      <point x="500" y="528"/>
      <point x="500" y="571" type="curve" smooth="yes"/>
      <point x="500" y="668" type="line" smooth="yes"/>
      <point x="500" y="711"/>
      <point x="489" y="715"/>
      <point x="474" y="715" type="curve" smooth="yes"/>
      <point x="126" y="715" type="line" smooth="yes"/>
      <point x="111" y="715"/>
      <point x="99" y="711"/>
      <point x="99" y="668" type="curve" smooth="yes"/>
      <point x="99" y="571" type="line" smooth="yes"/>
      <point x="99" y="528"/>
      <point x="111" y="524"/>
    </contour>
  </outline>
</glyph>
<glyph name="period" format="1">
  <advance width="426"/>
  <unicode hex="002E"/>
  <outline>
    <contour>
      <point x="129" y="0" type="curve" smooth="yes"/>
      <point x="296" y="0" type="line" smooth="yes"/>
      <point x="311" y="0"/>
      <point x="323" y="5"/>
      <point x="323" y="48" type="curve" smooth="yes"/>
      <point x="323" y="229" type="line" smooth="yes"/>
      <point x="323" y="272"/>
      <point x="311" y="276"/>
      <point x="296" y="276" type="curve" smooth="yes"/>
      <point x="129" y="276" type="line" smooth="yes"/>
      <point x="114" y="276"/>
      <point x="102" y="272"/>
      <point x="102" y="229" type="curve" smooth="yes"/>
      <point x="102" y="48" type="line" smooth="yes"/>
      <point x="102" y="5"/>
      <point x="114" y="0"/>
    </contour>
  </outline>
</glyph>
<glyph name="slash" format="1">
  <advance width="614"/>
  <unicode hex="002F"/>
  <outline>
    <contour>
      <point x="98" y="-205" type="curve" smooth="yes"/>
      <point x="275" y="-207" type="line" smooth="yes"/>
      <point x="282" y="-207"/>
      <point x="289" y="-193"/>
      <point x="292" y="-172" type="curve" smooth="yes"/>
      <point x="527" y="1612" type="line" smooth="yes"/>
      <point x="530" y="1629"/>
      <point x="525" y="1647"/>
      <point x="518" y="1647" type="curve" smooth="yes"/>
      <point x="343" y="1647" type="line" smooth="yes"/>
      <point x="335" y="1647"/>
      <point x="328" y="1633"/>
      <point x="325" y="1612" type="curve" smooth="yes"/>
      <point x="90" y="-170" type="line" smooth="yes"/>
      <point x="88" y="-187"/>
      <point x="93" y="-205"/>
    </contour>
  </outline>
</glyph>
<glyph name="one" format="1">
  <advance width="598"/>
  <unicode hex="0031"/>
  <outline>
    <contour>
      <point x="213" y="0" type="curve" smooth="yes"/>
      <point x="422" y="0" type="line" smooth="yes"/>
      <point x="437" y="0"/>
      <point x="449" y="24"/>
      <point x="449" y="67" type="curve" smooth="yes"/>
      <point x="449" y="1382" type="line" smooth="yes"/>
      <point x="449" y="1425"/>
      <point x="437" y="1440"/>
      <point x="421" y="1436" type="curve" smooth="yes"/>
      <point x="104" y="1357" type="line" smooth="yes"/>
      <point x="90" y="1354"/>
      <point x="79" y="1341"/>
      <point x="79" y="1300" type="curve" smooth="yes"/>
      <point x="79" y="1175" type="line" smooth="yes"/>
      <point x="79" y="1137"/>
      <point x="87" y="1121"/>
      <point x="100" y="1121" type="curve" smooth="yes"/>
      <point x="102" y="1121"/>
      <point x="175" y="1139"/>
      <point x="175" y="1139" type="curve" smooth="yes"/>
      <point x="182" y="1140"/>
      <point x="188" y="1123"/>
      <point x="188" y="1103" type="curve" smooth="yes"/>
      <point x="188" y="67" type="line" smooth="yes"/>
      <point x="188" y="24"/>
      <point x="199" y="0"/>
    </contour>
  </outline>
</glyph>
<glyph name="two" format="1">
  <advance width="706"/>
  <unicode hex="0032"/>
  <outline>
    <contour>
      <point x="607" y="1" type="line"/>
      <point x="618" y="1"/>
      <point x="623" y="14"/>
      <point x="623" y="57" type="curve" smooth="yes"/>
      <point x="623" y="125" type="line" smooth="yes"/>
      <point x="623" y="170"/>
      <point x="617" y="186"/>
      <point x="608" y="186" type="curve" smooth="yes"/>
      <point x="317" y="186" type="line"/>
      <point x="301" y="186"/>
      <point x="292" y="235"/>
      <point x="298" y="252" type="curve" smooth="yes"/>
      <point x="432" y="760"/>
      <point x="659" y="872"/>
      <point x="659" y="1157" type="curve" smooth="yes"/>
      <point x="659" y="1415"/>
      <point x="470" y="1456"/>
      <point x="322" y="1456" type="curve" smooth="yes"/>
      <point x="246" y="1455"/>
      <point x="137" y="1426"/>
      <point x="96" y="1379" type="curve" smooth="yes"/>
      <point x="89" y="1367"/>
      <point x="85" y="1348"/>
      <point x="85" y="1313" type="curve" smooth="yes"/>
      <point x="85" y="1309"/>
      <point x="90" y="1263"/>
      <point x="100" y="1201" type="curve" smooth="yes"/>
      <point x="101" y="1173"/>
      <point x="109" y="1162"/>
      <point x="129" y="1182" type="curve"/>
      <point x="141" y="1191"/>
      <point x="221" y="1245"/>
      <point x="315" y="1245" type="curve" smooth="yes"/>
      <point x="373" y="1245"/>
      <point x="447" y="1199"/>
      <point x="447" y="1110" type="curve" smooth="yes"/>
      <point x="447" y="909"/>
      <point x="118" y="678"/>
      <point x="71" y="147" type="curve" smooth="yes"/>
      <point x="70" y="137"/>
      <point x="69" y="97"/>
      <point x="69" y="87" type="curve" smooth="yes"/>
      <point x="69" y="33"/>
      <point x="80" y="1"/>
      <point x="98" y="1" type="curve" smooth="yes"/>
    </contour>
  </outline>
</glyph>
<glyph name="five" format="1">
  <advance width="814"/>
  <unicode hex="0035"/>
  <outline>
    <contour>
      <point x="385" y="-16" type="curve" smooth="yes"/>
      <point x="591" y="-16"/>
      <point x="734" y="79"/>
      <point x="734" y="463" type="curve" smooth="yes"/>
      <point x="734" y="758"/>
      <point x="645" y="942"/>
      <point x="468" y="942" type="curve" smooth="yes"/>
      <point x="345" y="942"/>
      <point x="293" y="880"/>
      <point x="270" y="840" type="curve"/>
      <point x="270" y="840"/>
      <point x="266" y="1166"/>
      <point x="266" y="1168" type="curve" smooth="yes"/>
      <point x="266" y="1212"/>
      <point x="275" y="1225"/>
      <point x="289" y="1225" type="curve" smooth="yes"/>
      <point x="666" y="1225" type="line" smooth="yes"/>
      <point x="674" y="1225"/>
      <point x="679" y="1238"/>
      <point x="681" y="1268" type="curve"/>
      <point x="684" y="1383" type="line" smooth="yes"/>
      <point x="684" y="1411"/>
      <point x="679" y="1438"/>
      <point x="667" y="1438" type="curve" smooth="yes"/>
      <point x="133" y="1438" type="line" smooth="yes"/>
      <point x="109" y="1438"/>
      <point x="102" y="1396"/>
      <point x="103" y="1324" type="curve" smooth="yes"/>
      <point x="124" y="696" type="line" smooth="yes"/>
      <point x="125" y="656"/>
      <point x="124" y="616"/>
      <point x="147" y="616" type="curve" smooth="yes"/>
      <point x="207" y="616" type="line" smooth="yes"/>
      <point x="259" y="616"/>
      <point x="226" y="755"/>
      <point x="362" y="755" type="curve" smooth="yes"/>
      <point x="501" y="755"/>
      <point x="509" y="590"/>
      <point x="509" y="483" type="curve" smooth="yes"/>
      <point x="509" y="280"/>
      <point x="489" y="193"/>
      <point x="337" y="193" type="curve" smooth="yes"/>
      <point x="224" y="193"/>
      <point x="152" y="251"/>
      <point x="138" y="258" type="curve" smooth="yes"/>
      <point x="135" y="260"/>
      <point x="133" y="261"/>
      <point x="131" y="261" type="curve" smooth="yes"/>
      <point x="111" y="261"/>
      <point x="111" y="118"/>
      <point x="111" y="117" type="curve" smooth="yes"/>
      <point x="111" y="88"/>
      <point x="116" y="71"/>
      <point x="129" y="61" type="curve" smooth="yes"/>
      <point x="168" y="29"/>
      <point x="308" y="-15"/>
    </contour>
  </outline>
</glyph>
<glyph name="semicolon" format="1">
  <advance width="371"/>
  <unicode hex="003B"/>
  <outline>
    <contour>
      <point x="130" y="-340" type="curve" smooth="yes"/>
      <point x="178" y="-317"/>
      <point x="296" y="-209"/>
      <point x="296" y="29" type="curve" smooth="yes"/>
      <point x="296" y="246" type="line" smooth="yes"/>
      <point x="296" y="289"/>
      <point x="284" y="304"/>
      <point x="270" y="304" type="curve" smooth="yes"/>
      <point x="126" y="304" type="line" smooth="yes"/>
      <point x="111" y="304"/>
      <point x="105" y="289"/>
      <point x="105" y="246" type="curve" smooth="yes"/>
      <point x="105" y="60" type="line" smooth="yes"/>
      <point x="105" y="22"/>
      <point x="112" y="0"/>
      <point x="126" y="0" type="curve" smooth="yes"/>
      <point x="175" y="0" type="line" smooth="yes"/>
      <point x="180" y="0"/>
      <point x="181" y="-11"/>
      <point x="181" y="-27" type="curve" smooth="yes"/>
      <point x="181" y="-89"/>
      <point x="163" y="-164"/>
      <point x="128" y="-200" type="curve" smooth="yes"/>
      <point x="107" y="-222"/>
      <point x="105" y="-221"/>
      <point x="105" y="-275" type="curve" smooth="yes"/>
      <point x="105" y="-295" type="line" smooth="yes"/>
      <point x="105" y="-331"/>
      <point x="118" y="-346"/>
    </contour>
    <contour>
      <point x="131" y="661" type="curve" smooth="yes"/>
      <point x="263" y="661" type="line" smooth="yes"/>
      <point x="278" y="661"/>
      <point x="289" y="676"/>
      <point x="289" y="719" type="curve" smooth="yes"/>
      <point x="289" y="950" type="line" smooth="yes"/>
      <point x="289" y="993"/>
      <point x="278" y="1008"/>
      <point x="263" y="1008" type="curve" smooth="yes"/>
      <point x="131" y="1008" type="line" smooth="yes"/>
      <point x="116" y="1008"/>
      <point x="104" y="993"/>
      <point x="104" y="950" type="curve" smooth="yes"/>
      <point x="104" y="719" type="line" smooth="yes"/>
      <point x="104" y="676"/>
      <point x="116" y="661"/>
    </contour>
  </outline>
</glyph>
<glyph name="equal" format="1">
  <advance width="621"/>
  <unicode hex="003D"/>
  <outline>
    <contour>
      <point x="75" y="325" type="curve" smooth="yes"/>
      <point x="547" y="325" type="line" smooth="yes"/>
      <point x="561" y="325"/>
      <point x="573" y="329"/>
      <point x="573" y="372" type="curve" smooth="yes"/>
      <point x="573" y="430" type="line" smooth="yes"/>
      <point x="573" y="473"/>
      <point x="561" y="477"/>
      <point x="547" y="477" type="curve" smooth="yes"/>
      <point x="75" y="477" type="line" smooth="yes"/>
      <point x="60" y="477"/>
      <point x="48" y="473"/>
      <point x="48" y="430" type="curve" smooth="yes"/>
      <point x="48" y="372" type="line" smooth="yes"/>
      <point x="48" y="329"/>
      <point x="60" y="325"/>
    </contour>
    <contour>
      <point x="75" y="611" type="curve" smooth="yes"/>
      <point x="547" y="611" type="line" smooth="yes"/>
      <point x="561" y="611"/>
      <point x="573" y="615"/>
      <point x="573" y="658" type="curve" smooth="yes"/>
      <point x="573" y="716" type="line" smooth="yes"/>
      <point x="573" y="759"/>
      <point x="561" y="763"/>
      <point x="547" y="763" type="curve" smooth="yes"/>
      <point x="75" y="763" type="line" smooth="yes"/>
      <point x="60" y="763"/>
      <point x="48" y="759"/>
      <point x="48" y="716" type="curve" smooth="yes"/>
      <point x="48" y="658" type="line" smooth="yes"/>
      <point x="48" y="615"/>
      <point x="60" y="611"/>
    </contour>
  </outline>
</glyph>
<glyph name="greater" format="1">
  <advance width="1340"/>
  <unicode hex="003E"/>
  <outline>
    <contour>
      <point x="234" y="166" type="curve" smooth="yes"/>
      <point x="244" y="166"/>
      <point x="255" y="170"/>
      <point x="265" y="176" type="curve" smooth="yes"/>
      <point x="561" y="481" type="line" smooth="yes"/>
      <point x="600" y="521"/>
      <point x="632" y="551"/>
      <point x="632" y="600" type="curve" smooth="yes"/>
      <point x="632" y="669" type="line" smooth="yes"/>
      <point x="632" y="718"/>
      <point x="600" y="745"/>
      <point x="562" y="785" type="curve" smooth="yes"/>
      <point x="265" y="1099" type="line" smooth="yes"/>
      <point x="254" y="1105"/>
      <point x="243" y="1109"/>
      <point x="234" y="1109" type="curve" smooth="yes"/>
      <point x="208" y="1109"/>
      <point x="190" y="1088"/>
      <point x="190" y="1066" type="curve" smooth="yes"/>
      <point x="190" y="986" type="line" smooth="yes"/>
      <point x="190" y="938"/>
      <point x="214" y="921"/>
      <point x="249" y="886" type="curve" smooth="yes"/>
      <point x="466" y="653" type="line" smooth="yes"/>
      <point x="473" y="647"/>
      <point x="477" y="640"/>
      <point x="477" y="633" type="curve" smooth="yes"/>
      <point x="477" y="627"/>
      <point x="474" y="620"/>
      <point x="466" y="612" type="curve" smooth="yes"/>
      <point x="249" y="385" type="line" smooth="yes"/>
      <point x="214" y="349"/>
      <point x="190" y="333"/>
      <point x="190" y="284" type="curve" smooth="yes"/>
      <point x="190" y="210" type="line" smooth="yes"/>
      <point x="190" y="187"/>
      <point x="208" y="166"/>
    </contour>
  </outline>
</glyph>
<glyph name="A" format="1">
  <advance width="860"/>
  <unicode hex="0041"/>
  <outline>
    <contour>
      <point x="65" y="0" type="curve" smooth="yes"/>
      <point x="65" y="0"/>
      <point x="237" y="0"/>
      <point x="240" y="0" type="curve" smooth="yes"/>
      <point x="251" y="0"/>
      <point x="260" y="4"/>
      <point x="264" y="37" type="curve" smooth="yes"/>
      <point x="299" y="268" type="line"/>
      <point x="302" y="287"/>
      <point x="303" y="299"/>
      <point x="313" y="299" type="curve"/>
      <point x="509" y="299" type="line"/>
      <point x="519" y="299"/>
      <point x="519" y="288"/>
      <point x="523" y="269" type="curve"/>
      <point x="554" y="36" type="line" smooth="yes"/>
      <point x="560" y="4"/>
      <point x="569" y="0"/>
      <point x="580" y="0" type="curve" smooth="yes"/>
      <point x="583" y="0"/>
      <point x="808" y="0"/>
      <point x="808" y="0" type="curve" smooth="yes"/>
      <point x="818" y="0"/>
      <point x="825" y="2"/>
      <point x="825" y="27" type="curve" smooth="yes"/>
      <point x="825" y="34"/>
      <point x="823" y="61"/>
      <point x="822" y="68" type="curve" smooth="yes"/>
      <point x="611" y="1392" type="line" smooth="yes"/>
      <point x="604" y="1433"/>
      <point x="590" y="1438"/>
      <point x="574" y="1438" type="curve"/>
      <point x="298" y="1438" type="line"/>
      <point x="282" y="1438"/>
      <point x="268" y="1433"/>
      <point x="261" y="1392" type="curve" smooth="yes"/>
      <point x="51" y="68" type="line" smooth="yes"/>
      <point x="50" y="61"/>
      <point x="50" y="34"/>
      <point x="50" y="27" type="curve" smooth="yes"/>
      <point x="50" y="2"/>
      <point x="56" y="0"/>
    </contour>
    <contour>
      <point x="343" y="454" type="line"/>
      <point x="328" y="454"/>
      <point x="325" y="466"/>
      <point x="325" y="478" type="curve" smooth="yes"/>
      <point x="325" y="481"/>
      <point x="325" y="484"/>
      <point x="326" y="487" type="curve" smooth="yes"/>
      <point x="421" y="1166" type="line"/>
      <point x="422" y="1171"/>
      <point x="423" y="1174"/>
      <point x="425" y="1174" type="curve"/>
      <point x="427" y="1174"/>
      <point x="428" y="1171"/>
      <point x="429" y="1165" type="curve" smooth="yes"/>
      <point x="511" y="488" type="line"/>
      <point x="512" y="485"/>
      <point x="512" y="481"/>
      <point x="512" y="478" type="curve" smooth="yes"/>
      <point x="512" y="466"/>
      <point x="509" y="454"/>
      <point x="503" y="454" type="curve" smooth="yes"/>
    </contour>
    <contour>
      <point x="430" y="1438" type="move" name="top"/>
    </contour>
    <contour>
      <point x="773" y="10" type="move" name="ogonek"/>
    </contour>
  </outline>
</glyph>
<glyph name="C" format="1">
  <advance width="743"/>
  <unicode hex="0043"/>
  <outline>
    <contour>
      <point x="522" y="-16" type="curve" smooth="yes"/>
      <point x="585" y="-16"/>
      <point x="646" y="-6"/>
      <point x="684" y="9" type="curve" smooth="yes"/>
      <point x="684" y="9"/>
      <point x="693" y="36"/>
      <point x="693" y="36" type="curve" smooth="yes"/>
      <point x="693" y="181" type="line" smooth="yes"/>
      <point x="693" y="181"/>
      <point x="684" y="208"/>
      <point x="684" y="208" type="curve" smooth="yes"/>
      <point x="648" y="196"/>
      <point x="617" y="190"/>
      <point x="560" y="190" type="curve" smooth="yes"/>
      <point x="419" y="190"/>
      <point x="339" y="246"/>
      <point x="339" y="719" type="curve" smooth="yes"/>
      <point x="339" y="1187"/>
      <point x="434" y="1247"/>
      <point x="571" y="1247" type="curve" smooth="yes"/>
      <point x="631" y="1247"/>
      <point x="684" y="1230"/>
      <point x="688" y="1230" type="curve" smooth="yes"/>
      <point x="692" y="1230"/>
      <point x="695" y="1231"/>
      <point x="695" y="1246" type="curve" smooth="yes"/>
      <point x="695" y="1404" type="line" smooth="yes"/>
      <point x="695" y="1421"/>
      <point x="688" y="1420"/>
      <point x="685" y="1425" type="curve" smooth="yes"/>
      <point x="648" y="1443"/>
      <point x="577" y="1456"/>
      <point x="525" y="1456" type="curve" smooth="yes"/>
      <point x="293" y="1456"/>
      <point x="86" y="1381"/>
      <point x="86" y="719" type="curve" smooth="yes"/>
      <point x="86" y="54"/>
      <point x="282" y="-16"/>
    </contour>
    <contour>
      <point x="372" y="1438" type="move" name="top"/>
    </contour>
    <contour>
      <point x="372" y="0" type="move" name="bottom"/>
    </contour>
  </outline>
</glyph>
<glyph name="E" format="1">
  <advance width="795"/>
  <unicode hex="0045"/>
  <outline>
    <contour>
      <point x="148" y="0" type="curve" smooth="yes"/>
      <point x="718" y="0" type="line" smooth="yes"/>
      <point x="733" y="0"/>
      <point x="745" y="4"/>
      <point x="745" y="46" type="curve" smooth="yes"/>
      <point x="745" y="158" type="line" smooth="yes"/>
      <point x="745" y="201"/>
      <point x="733" y="204"/>
      <point x="718" y="204" type="curve" smooth="yes"/>
      <point x="374" y="204" type="line"/>
      <point x="374" y="577" type="line"/>
      <point x="374" y="596"/>
      <point x="380" y="613"/>
      <point x="387" y="613" type="curve"/>
      <point x="633" y="613" type="line" smooth="yes"/>
      <point x="648" y="613"/>
      <point x="659" y="627"/>
      <point x="659" y="669" type="curve" smooth="yes"/>
      <point x="659" y="778" type="line" smooth="yes"/>
      <point x="659" y="820"/>
      <point x="648" y="833"/>
      <point x="633" y="833" type="curve" smooth="yes"/>
      <point x="386" y="833" type="line"/>
      <point x="380" y="833"/>
      <point x="374" y="850"/>
      <point x="374" y="869" type="curve"/>
      <point x="374" y="1197" type="line" smooth="yes"/>
      <point x="374" y="1217"/>
      <point x="380" y="1234"/>
      <point x="387" y="1234" type="curve" smooth="yes"/>
      <point x="713" y="1234" type="line" smooth="yes"/>
      <point x="728" y="1234"/>
      <point x="740" y="1237"/>
      <point x="740" y="1280" type="curve" smooth="yes"/>
      <point x="740" y="1392" type="line" smooth="yes"/>
      <point x="740" y="1434"/>
      <point x="728" y="1438"/>
      <point x="713" y="1438" type="curve" smooth="yes"/>
      <point x="148" y="1438" type="line" smooth="yes"/>
      <point x="133" y="1438"/>
      <point x="121" y="1434"/>
      <point x="121" y="1392" type="curve" smooth="yes"/>
      <point x="121" y="46" type="line" smooth="yes"/>
      <point x="121" y="4"/>
      <point x="133" y="0"/>
    </contour>
    <contour>
      <point x="397" y="1438" type="move" name="top"/>
    </contour>
    <contour>
      <point x="716" y="10" type="move" name="ogonek"/>
    </contour>
    <contour>
      <point x="397" y="0" type="move" name="bottom"/>
    </contour>
  </outline>
</glyph>
<glyph name="F" format="1">
  <advance width="717"/>
  <unicode hex="0046"/>
  <outline>
    <contour>
      <point x="148" y="0" type="curve" smooth="yes"/>
      <point x="348" y="0" type="line" smooth="yes"/>
      <point x="362" y="0"/>
      <point x="374" y="4"/>
      <point x="374" y="46" type="curve" smooth="yes"/>
      <point x="374" y="551" type="line"/>
      <point x="374" y="570"/>
      <point x="380" y="580"/>
      <point x="387" y="580" type="curve"/>
      <point x="604" y="580" type="line" smooth="yes"/>
      <point x="619" y="580"/>
      <point x="630" y="584"/>
      <point x="630" y="626" type="curve" smooth="yes"/>
      <point x="630" y="754" type="line" smooth="yes"/>
      <point x="630" y="796"/>
      <point x="619" y="800"/>
      <point x="604" y="800" type="curve" smooth="yes"/>
      <point x="386" y="800" type="line"/>
      <point x="380" y="800"/>
      <point x="374" y="807"/>
      <point x="374" y="826" type="curve"/>
      <point x="374" y="1207" type="line" smooth="yes"/>
      <point x="374" y="1227"/>
      <point x="380" y="1234"/>
      <point x="387" y="1234" type="curve" smooth="yes"/>
      <point x="670" y="1234" type="line" smooth="yes"/>
      <point x="685" y="1234"/>
      <point x="696" y="1237"/>
      <point x="696" y="1280" type="curve" smooth="yes"/>
      <point x="696" y="1392" type="line" smooth="yes"/>
      <point x="696" y="1434"/>
      <point x="685" y="1438"/>
      <point x="670" y="1438" type="curve" smooth="yes"/>
      <point x="148" y="1438" type="line" smooth="yes"/>
      <point x="133" y="1438"/>
      <point x="121" y="1433"/>
      <point x="121" y="1391" type="curve" smooth="yes"/>
      <point x="121" y="46" type="line" smooth="yes"/>
      <point x="121" y="4"/>
      <point x="133" y="0"/>
    </contour>
  </outline>
</glyph>
<glyph name="G" format="1">
  <advance width="933"/>
  <unicode hex="0047"/>
  <outline>
    <contour>
      <point x="821" y="-17" type="curve" smooth="yes"/>
      <point x="835" y="-17"/>
      <point x="857" y="16"/>
      <point x="857" y="59" type="curve" smooth="yes"/>
      <point x="857" y="702" type="line" smooth="yes"/>
      <point x="857" y="745"/>
      <point x="845" y="777"/>
      <point x="831" y="777" type="curve" smooth="yes"/>
      <point x="560" y="777" type="line" smooth="yes"/>
      <point x="545" y="777"/>
      <point x="533" y="769"/>
      <point x="533" y="727" type="curve" smooth="yes"/>
      <point x="533" y="612" type="line" smooth="yes"/>
      <point x="533" y="570"/>
      <point x="545" y="564"/>
      <point x="560" y="564" type="curve" smooth="yes"/>
      <point x="632" y="564" type="line" smooth="yes"/>
      <point x="637" y="564"/>
      <point x="641" y="551"/>
      <point x="641" y="535" type="curve" smooth="yes"/>
      <point x="641" y="303"/>
      <point x="628" y="186"/>
      <point x="523" y="186" type="curve" smooth="yes"/>
      <point x="413" y="186"/>
      <point x="346" y="298"/>
      <point x="346" y="719" type="curve" smooth="yes"/>
      <point x="346" y="1170"/>
      <point x="448" y="1247"/>
      <point x="606" y="1247" type="curve" smooth="yes"/>
      <point x="667" y="1247"/>
      <point x="771" y="1218"/>
      <point x="775" y="1218" type="curve" smooth="yes"/>
      <point x="779" y="1218"/>
      <point x="782" y="1219"/>
      <point x="782" y="1233" type="curve" smooth="yes"/>
      <point x="782" y="1395" type="line" smooth="yes"/>
      <point x="782" y="1412"/>
      <point x="775" y="1411"/>
      <point x="772" y="1416" type="curve" smooth="yes"/>
      <point x="735" y="1433"/>
      <point x="648" y="1456"/>
      <point x="595" y="1456" type="curve" smooth="yes"/>
      <point x="343" y="1456"/>
      <point x="93" y="1392"/>
      <point x="93" y="719" type="curve" smooth="yes"/>
      <point x="93" y="66"/>
      <point x="295" y="-16"/>
      <point x="493" y="-16" type="curve" smooth="yes"/>
      <point x="623" y="-16"/>
      <point x="694" y="59"/>
      <point x="714" y="207" type="curve" smooth="yes"/>
      <point x="716" y="214"/>
      <point x="718" y="217"/>
      <point x="720" y="217" type="curve" smooth="yes"/>
      <point x="721" y="217"/>
      <point x="724" y="213"/>
      <point x="724" y="205" type="curve" smooth="yes"/>
      <point x="724" y="203"/>
      <point x="760" y="54"/>
      <point x="760" y="52" type="curve" smooth="yes"/>
      <point x="773" y="-5"/>
      <point x="805" y="-17"/>
    </contour>
    <contour>
      <point x="466" y="1438" type="move" name="top"/>
    </contour>
    <contour>
      <point x="466" y="0" type="move" name="bottom"/>
    </contour>
  </outline>
</glyph>
<glyph name="H" format="1">
  <advance width="992"/>
  <unicode hex="0048"/>
  <outline>
    <contour>
      <point x="148" y="0" type="curve" smooth="yes"/>
      <point x="350" y="0" type="line" smooth="yes"/>
      <point x="365" y="0"/>
      <point x="376" y="4"/>
      <point x="376" y="47" type="curve" smooth="yes"/>
      <point x="376" y="648" type="line"/>
      <point x="376" y="667"/>
      <point x="382" y="670"/>
      <point x="388" y="670" type="curve"/>
      <point x="604" y="670" type="line"/>
      <point x="611" y="670"/>
      <point x="617" y="667"/>
      <point x="617" y="648" type="curve"/>
      <point x="617" y="47" type="line" smooth="yes"/>
      <point x="617" y="4"/>
      <point x="629" y="0"/>
      <point x="644" y="0" type="curve" smooth="yes"/>
      <point x="845" y="0" type="line" smooth="yes"/>
      <point x="860" y="0"/>
      <point x="871" y="4"/>
      <point x="871" y="47" type="curve" smooth="yes"/>
      <point x="871" y="1391" type="line" smooth="yes"/>
      <point x="871" y="1434"/>
      <point x="860" y="1438"/>
      <point x="845" y="1438" type="curve" smooth="yes"/>
      <point x="644" y="1438" type="line" smooth="yes"/>
      <point x="629" y="1438"/>
      <point x="618" y="1434"/>
      <point x="618" y="1391" type="curve" smooth="yes"/>
      <point x="618" y="895" type="line"/>
      <point x="618" y="876"/>
      <point x="612" y="869"/>
      <point x="605" y="869" type="curve"/>
      <point x="386" y="869" type="line"/>
      <point x="380" y="869"/>
      <point x="374" y="876"/>
      <point x="374" y="895" type="curve"/>
      <point x="374" y="1391" type="line" smooth="yes"/>
      <point x="374" y="1434"/>
      <point x="363" y="1438"/>
      <point x="348" y="1438" type="curve" smooth="yes"/>
      <point x="148" y="1438" type="line" smooth="yes"/>
      <point x="133" y="1438"/>
      <point x="121" y="1434"/>
      <point x="121" y="1391" type="curve" smooth="yes"/>
      <point x="121" y="47" type="line" smooth="yes"/>
      <point x="121" y="4"/>
      <point x="133" y="0"/>
    </contour>
    <contour>
      <point x="496" y="1438" type="move" name="top"/>
    </contour>
    <contour>
      <point x="496" y="719" type="move" name="center"/>
    </contour>
  </outline>
</glyph>
<glyph name="J" format="1">
  <advance width="576"/>
  <unicode hex="004A"/>
  <outline>
    <contour>
      <point x="84" y="-161" type="curve" smooth="yes"/>
      <point x="261" y="-161"/>
      <point x="455" y="-139"/>
      <point x="455" y="431" type="curve" smooth="yes"/>
      <point x="455" y="1400" type="line" smooth="yes"/>
      <point x="455" y="1421"/>
      <point x="447" y="1438"/>
      <point x="441" y="1438" type="curve" smooth="yes"/>
      <point x="214" y="1438" type="line" smooth="yes"/>
      <point x="207" y="1438"/>
      <point x="202" y="1421"/>
      <point x="202" y="1400" type="curve" smooth="yes"/>
      <point x="202" y="507" type="line" smooth="yes"/>
      <point x="202" y="105"/>
      <point x="158" y="100"/>
      <point x="84" y="91" type="curve" smooth="yes"/>
      <point x="77" y="90"/>
      <point x="71" y="74"/>
      <point x="71" y="53" type="curve" smooth="yes"/>
      <point x="71" y="-127" type="line" smooth="yes"/>
      <point x="71" y="-147"/>
      <point x="77" y="-161"/>
    </contour>
    <contour>
      <point x="289" y="1438" type="move" name="top"/>
    </contour>
  </outline>
</glyph>
<glyph name="L" format="1">
  <advance width="703"/>
  <unicode hex="004C"/>
  <outline>
    <contour>
      <point x="148" y="0" type="curve" smooth="yes"/>
      <point x="644" y="0" type="line" smooth="yes"/>
      <point x="659" y="0"/>
      <point x="671" y="4"/>
      <point x="671" y="46" type="curve" smooth="yes"/>
      <point x="671" y="159" type="line" smooth="yes"/>
      <point x="671" y="201"/>
      <point x="659" y="204"/>
      <point x="644" y="204" type="curve" smooth="yes"/>
      <point x="387" y="204" type="line" smooth="yes"/>
      <point x="380" y="204"/>
      <point x="374" y="208"/>
      <point x="374" y="228" type="curve" smooth="yes"/>
      <point x="374" y="1391" type="line" smooth="yes"/>
      <point x="374" y="1434"/>
      <point x="362" y="1438"/>
      <point x="348" y="1438" type="curve" smooth="yes"/>
      <point x="148" y="1438" type="line" smooth="yes"/>
      <point x="133" y="1438"/>
      <point x="121" y="1434"/>
      <point x="121" y="1391" type="curve" smooth="yes"/>
      <point x="121" y="47" type="line" smooth="yes"/>
      <point x="121" y="4"/>
      <point x="133" y="0"/>
    </contour>
    <contour>
      <point x="352" y="1438" type="move" name="top"/>
    </contour>
    <contour>
      <point x="352" y="0" type="move" name="bottom"/>
    </contour>
  </outline>
</glyph>
<glyph name="M" format="1">
  <advance width="1118"/>
  <unicode hex="004D"/>
  <outline>
    <contour>
      <point x="119" y="0" type="curve" smooth="yes"/>
      <point x="272" y="0" type="line" smooth="yes"/>
      <point x="287" y="0"/>
      <point x="297" y="5"/>
      <point x="297" y="48" type="curve" smooth="yes"/>
      <point x="328" y="918" type="line"/>
      <point x="328" y="927"/>
      <point x="332" y="931"/>
      <point x="333" y="923" type="curve"/>
      <point x="483" y="39" type="line"/>
      <point x="491" y="4"/>
      <point x="503" y="0"/>
      <point x="516" y="0" type="curve" smooth="yes"/>
      <point x="518" y="0"/>
      <point x="594" y="0"/>
      <point x="597" y="0" type="curve" smooth="yes"/>
      <point x="610" y="0"/>
      <point x="622" y="4"/>
      <point x="629" y="39" type="curve"/>
      <point x="784" y="923" type="line"/>
      <point x="786" y="932"/>
      <point x="791" y="928"/>
      <point x="791" y="918" type="curve"/>
      <point x="821" y="48" type="line" smooth="yes"/>
      <point x="822" y="5"/>
      <point x="832" y="0"/>
      <point x="847" y="0" type="curve" smooth="yes"/>
      <point x="998" y="0" type="line" smooth="yes"/>
      <point x="1014" y="0"/>
      <point x="1025" y="5"/>
      <point x="1024" y="48" type="curve" smooth="yes"/>
      <point x="975" y="1386" type="line" smooth="yes"/>
      <point x="975" y="1429"/>
      <point x="963" y="1438"/>
      <point x="949" y="1438" type="curve"/>
      <point x="743" y="1438" type="line"/>
      <point x="727" y="1438"/>
      <point x="711" y="1436"/>
      <point x="704" y="1396" type="curve"/>
      <point x="565" y="740" type="line"/>
      <point x="563" y="726"/>
      <point x="556" y="726"/>
      <point x="553" y="740" type="curve"/>
      <point x="417" y="1396" type="line"/>
      <point x="409" y="1436"/>
      <point x="394" y="1438"/>
      <point x="378" y="1438" type="curve"/>
      <point x="168" y="1438" type="line"/>
      <point x="153" y="1438"/>
      <point x="142" y="1429"/>
      <point x="142" y="1386" type="curve" smooth="yes"/>
      <point x="94" y="48" type="line" smooth="yes"/>
      <point x="93" y="5"/>
      <point x="105" y="0"/>
    </contour>
  </outline>
</glyph>
<glyph name="O" format="1">
  <advance width="960"/>
  <unicode hex="004F"/>
  <outline>
    <contour>
      <point x="479" y="186" type="curve" smooth="yes"/>
      <point x="369" y="186"/>
      <point x="339" y="297"/>
      <point x="339" y="727" type="curve" smooth="yes"/>
      <point x="339" y="1153"/>
      <point x="367" y="1247"/>
      <point x="481" y="1247" type="curve" smooth="yes"/>
      <point x="596" y="1247"/>
      <point x="621" y="1154"/>
      <point x="621" y="727" type="curve" smooth="yes"/>
      <point x="621" y="297"/>
      <point x="590" y="186"/>
    </contour>
    <contour>
      <point x="480" y="-16" type="curve" smooth="yes"/>
      <point x="751" y="-16"/>
      <point x="874" y="99"/>
      <point x="874" y="727" type="curve" smooth="yes"/>
      <point x="874" y="1345"/>
      <point x="741" y="1456"/>
      <point x="480" y="1456" type="curve" smooth="yes"/>
      <point x="220" y="1456"/>
      <point x="86" y="1345"/>
      <point x="86" y="727" type="curve" smooth="yes"/>
      <point x="86" y="100"/>
      <point x="210" y="-16"/>
    </contour>
    <contour>
      <point x="480" y="1438" type="move" name="top"/>
    </contour>
  </outline>
</glyph>
<glyph name="P" format="1">
  <advance width="912"/>
  <unicode hex="0050"/>
  <outline>
    <contour>
      <point x="148" y="0" type="curve" smooth="yes"/>
      <point x="347" y="0" type="line" smooth="yes"/>
      <point x="362" y="0"/>
      <point x="374" y="14"/>
      <point x="374" y="56" type="curve" smooth="yes"/>
      <point x="374" y="452" type="line" smooth="yes"/>
      <point x="374" y="471"/>
      <point x="380" y="473"/>
      <point x="386" y="473" type="curve" smooth="yes"/>
      <point x="513" y="473" type="line" smooth="yes"/>
      <point x="683" y="473"/>
      <point x="854" y="539"/>
      <point x="854" y="952" type="curve" smooth="yes"/>
      <point x="854" y="1392"/>
      <point x="668" y="1438"/>
      <point x="482" y="1438" type="curve" smooth="yes"/>
      <point x="148" y="1438" type="line" smooth="yes"/>
      <point x="133" y="1438"/>
      <point x="121" y="1432"/>
      <point x="121" y="1390" type="curve" smooth="yes"/>
      <point x="121" y="56" type="line" smooth="yes"/>
      <point x="121" y="14"/>
      <point x="133" y="0"/>
    </contour>
    <contour>
      <point x="386" y="679" type="line"/>
      <point x="380" y="679"/>
      <point x="374" y="682"/>
      <point x="374" y="701" type="curve" smooth="yes"/>
      <point x="374" y="1208" type="line" smooth="yes"/>
      <point x="374" y="1227"/>
      <point x="380" y="1234"/>
      <point x="386" y="1234" type="curve" smooth="yes"/>
      <point x="467" y="1234" type="line" smooth="yes"/>
      <point x="550" y="1234"/>
      <point x="601" y="1209"/>
      <point x="601" y="950" type="curve" smooth="yes"/>
      <point x="601" y="725"/>
      <point x="589" y="679"/>
      <point x="480" y="679" type="curve" smooth="yes"/>
    </contour>
  </outline>
</glyph>
<glyph name="Q" format="1">
  <advance width="964"/>
  <unicode hex="0051"/>
  <outline>
    <contour>
      <point x="557" y="-427" type="curve" smooth="yes"/>
      <point x="562" y="-427"/>
      <point x="667" y="-400"/>
      <point x="668" y="-400" type="curve" smooth="yes"/>
      <point x="684" y="-394"/>
      <point x="688" y="-378"/>
      <point x="688" y="-356" type="curve" smooth="yes"/>
      <point x="688" y="-319"/>
      <point x="643" y="-106"/>
      <point x="624" y="-4" type="curve"/>
      <point x="797" y="47"/>
      <point x="878" y="214"/>
      <point x="878" y="721" type="curve" smooth="yes"/>
      <point x="878" y="1342"/>
      <point x="743" y="1456"/>
      <point x="482" y="1456" type="curve" smooth="yes"/>
      <point x="222" y="1456"/>
      <point x="86" y="1341"/>
      <point x="86" y="721" type="curve" smooth="yes"/>
      <point x="86" y="147"/>
      <point x="190" y="5"/>
      <point x="415" y="-18" type="curve" smooth="yes"/>
      <point x="423" y="-19"/>
      <point x="433" y="-19"/>
      <point x="441" y="-19" type="curve"/>
      <point x="510" y="-365" type="line" smooth="yes"/>
      <point x="520" y="-413"/>
      <point x="539" y="-426"/>
    </contour>
    <contour>
      <point x="481" y="186" type="curve" smooth="yes"/>
      <point x="371" y="186"/>
      <point x="339" y="290"/>
      <point x="339" y="721" type="curve" smooth="yes"/>
      <point x="339" y="1149"/>
      <point x="369" y="1247"/>
      <point x="483" y="1247" type="curve" smooth="yes"/>
      <point x="598" y="1247"/>
      <point x="625" y="1150"/>
      <point x="625" y="721" type="curve" smooth="yes"/>
      <point x="625" y="289"/>
      <point x="592" y="186"/>
    </contour>
  </outline>
</glyph>
<glyph name="R" format="1">
  <advance width="958"/>
  <unicode hex="0052"/>
  <outline>
    <contour>
      <point x="148" y="0" type="curve" smooth="yes"/>
      <point x="347" y="0" type="line" smooth="yes"/>
      <point x="362" y="0"/>
      <point x="374" y="4"/>
      <point x="374" y="47" type="curve" smooth="yes"/>
      <point x="374" y="585" type="line" smooth="yes"/>
      <point x="374" y="604"/>
      <point x="380" y="611"/>
      <point x="386" y="611" type="curve" smooth="yes"/>
      <point x="386" y="611"/>
      <point x="470" y="611"/>
      <point x="471" y="611" type="curve"/>
      <point x="523" y="611"/>
      <point x="568" y="605"/>
      <point x="580" y="531" type="curve" smooth="yes"/>
      <point x="596" y="451"/>
      <point x="601" y="128"/>
      <point x="607" y="39" type="curve" smooth="yes"/>
      <point x="608" y="5"/>
      <point x="613" y="-2"/>
      <point x="622" y="-2" type="curve" smooth="yes"/>
      <point x="627" y="-2"/>
      <point x="842" y="0"/>
      <point x="842" y="0" type="curve" smooth="yes"/>
      <point x="852" y="0"/>
      <point x="856" y="21"/>
      <point x="856" y="47" type="curve" smooth="yes"/>
      <point x="856" y="68"/>
      <point x="853" y="312"/>
      <point x="851" y="369" type="curve" smooth="yes"/>
      <point x="839" y="622"/>
      <point x="791" y="682"/>
      <point x="705" y="725" type="curve" smooth="yes"/>
      <point x="704" y="725"/>
      <point x="704" y="727"/>
      <point x="704" y="729" type="curve" smooth="yes"/>
      <point x="704" y="731"/>
      <point x="704" y="733"/>
      <point x="705" y="734" type="curve" smooth="yes"/>
      <point x="782" y="762"/>
      <point x="845" y="822"/>
      <point x="845" y="1035" type="curve" smooth="yes"/>
      <point x="845" y="1383"/>
      <point x="707" y="1438"/>
      <point x="532" y="1438" type="curve" smooth="yes"/>
      <point x="148" y="1438" type="line" smooth="yes"/>
      <point x="133" y="1438"/>
      <point x="121" y="1434"/>
      <point x="121" y="1391" type="curve" smooth="yes"/>
      <point x="121" y="47" type="line" smooth="yes"/>
      <point x="121" y="4"/>
      <point x="133" y="0"/>
    </contour>
    <contour>
      <point x="386" y="811" type="line"/>
      <point x="380" y="811"/>
      <point x="374" y="827"/>
      <point x="374" y="846" type="curve" smooth="yes"/>
      <point x="374" y="1208" type="line" smooth="yes"/>
      <point x="374" y="1228"/>
      <point x="380" y="1234"/>
      <point x="386" y="1234" type="curve" smooth="yes"/>
      <point x="450" y="1234" type="line" smooth="yes"/>
      <point x="568" y="1234"/>
      <point x="592" y="1159"/>
      <point x="592" y="1025" type="curve" smooth="yes"/>
      <point x="592" y="945"/>
      <point x="578" y="811"/>
      <point x="484" y="811" type="curve" smooth="yes"/>
    </contour>
    <contour>
      <point x="479" y="1438" type="move" name="top"/>
    </contour>
    <contour>
      <point x="479" y="0" type="move" name="bottom"/>
    </contour>
  </outline>
</glyph>
<glyph name="U" format="1">
  <advance width="976"/>
  <unicode hex="0055"/>
  <outline>
    <contour>
      <point x="489" y="-16" type="curve" smooth="yes"/>
      <point x="704" y="-16"/>
      <point x="875" y="27"/>
      <point x="875" y="571" type="curve" smooth="yes"/>
      <point x="875" y="1391" type="line" smooth="yes"/>
      <point x="875" y="1434"/>
      <point x="864" y="1438"/>
      <point x="849" y="1438" type="curve" smooth="yes"/>
      <point x="648" y="1438" type="line" smooth="yes"/>
      <point x="634" y="1438"/>
      <point x="622" y="1434"/>
      <point x="622" y="1391" type="curve" smooth="yes"/>
      <point x="622" y="580" type="line" smooth="yes"/>
      <point x="622" y="219"/>
      <point x="588" y="189"/>
      <point x="488" y="189" type="curve" smooth="yes"/>
      <point x="387" y="189"/>
      <point x="354" y="233"/>
      <point x="354" y="580" type="curve" smooth="yes"/>
      <point x="354" y="1391" type="line" smooth="yes"/>
      <point x="354" y="1434"/>
      <point x="342" y="1438"/>
      <point x="328" y="1438" type="curve" smooth="yes"/>
      <point x="128" y="1438" type="line" smooth="yes"/>
      <point x="113" y="1438"/>
      <point x="101" y="1434"/>
      <point x="101" y="1391" type="curve" smooth="yes"/>
      <point x="101" y="571" type="line" smooth="yes"/>
      <point x="101" y="37"/>
      <point x="261" y="-16"/>
    </contour>
    <contour>
      <point x="488" y="1438" type="move" name="top"/>
    </contour>
    <contour>
      <point x="879" y="10" type="move" name="ogonek"/>
    </contour>
  </outline>
</glyph>
<glyph name="V" format="1">
  <advance width="839"/>
  <unicode hex="0056"/>
  <outline>
    <contour>
      <point x="324" y="0" type="curve"/>
      <point x="521" y="0" type="line"/>
      <point x="538" y="0"/>
      <point x="553" y="26"/>
      <point x="560" y="67" type="curve" smooth="yes"/>
      <point x="802" y="1371" type="line" smooth="yes"/>
      <point x="807" y="1402"/>
      <point x="800" y="1438"/>
      <point x="788" y="1438" type="curve" smooth="yes"/>
      <point x="626" y="1438" type="line" smooth="yes"/>
      <point x="609" y="1438"/>
      <point x="594" y="1411"/>
      <point x="587" y="1371" type="curve" smooth="yes"/>
      <point x="443" y="550" type="line"/>
      <point x="289" y="1371" type="line" smooth="yes"/>
      <point x="281" y="1411"/>
      <point x="267" y="1438"/>
      <point x="250" y="1438" type="curve" smooth="yes"/>
      <point x="52" y="1438" type="line" smooth="yes"/>
      <point x="40" y="1438"/>
      <point x="32" y="1402"/>
      <point x="37" y="1371" type="curve" smooth="yes"/>
      <point x="285" y="67" type="line"/>
      <point x="292" y="26"/>
      <point x="307" y="0"/>
    </contour>
  </outline>
</glyph>
<glyph name="X" format="1">
  <advance width="829"/>
  <unicode hex="0058"/>
  <outline>
    <contour>
      <point x="55" y="0" type="curve" smooth="yes"/>
      <point x="215" y="0" type="line" smooth="yes"/>
      <point x="231" y="0"/>
      <point x="248" y="19"/>
      <point x="260" y="51" type="curve" smooth="yes"/>
      <point x="388" y="383" type="line"/>
      <point x="500" y="55" type="line" smooth="yes"/>
      <point x="511" y="20"/>
      <point x="528" y="0"/>
      <point x="545" y="0" type="curve" smooth="yes"/>
      <point x="797" y="0" type="line" smooth="yes"/>
      <point x="804" y="0"/>
      <point x="808" y="16"/>
      <point x="808" y="33" type="curve" smooth="yes"/>
      <point x="808" y="40"/>
      <point x="807" y="48"/>
      <point x="805" y="56" type="curve" smooth="yes"/>
      <point x="556" y="814" type="line"/>
      <point x="777" y="1387" type="line" smooth="yes"/>
      <point x="780" y="1393"/>
      <point x="781" y="1401"/>
      <point x="781" y="1408" type="curve" smooth="yes"/>
      <point x="781" y="1423"/>
      <point x="777" y="1438"/>
      <point x="771" y="1438" type="curve" smooth="yes"/>
      <point x="610" y="1438" type="line" smooth="yes"/>
      <point x="594" y="1438"/>
      <point x="576" y="1419"/>
      <point x="563" y="1387" type="curve" smooth="yes"/>
      <point x="458" y="1111" type="line"/>
      <point x="367" y="1383" type="line" smooth="yes"/>
      <point x="356" y="1417"/>
      <point x="339" y="1438"/>
      <point x="323" y="1438" type="curve" smooth="yes"/>
      <point x="56" y="1438" type="line" smooth="yes"/>
      <point x="50" y="1438"/>
      <point x="45" y="1423"/>
      <point x="45" y="1407" type="curve" smooth="yes"/>
      <point x="45" y="1399"/>
      <point x="48" y="1390"/>
      <point x="49" y="1382" type="curve"/>
      <point x="289" y="675" type="line"/>
      <point x="49" y="52" type="line" smooth="yes"/>
      <point x="46" y="45"/>
      <point x="45" y="37"/>
      <point x="45" y="30" type="curve" smooth="yes"/>
      <point x="45" y="15"/>
      <point x="49" y="0"/>
    </contour>
  </outline>
</glyph>
<glyph name="Y" format="1">
  <advance width="790"/>
  <unicode hex="0059"/>
  <outline>
    <contour>
      <point x="298" y="0" type="curve" smooth="yes"/>
      <point x="499" y="0" type="line" smooth="yes"/>
      <point x="513" y="0"/>
      <point x="525" y="7"/>
      <point x="525" y="50" type="curve" smooth="yes"/>
      <point x="525" y="440" type="line"/>
      <point x="760" y="1376" type="line"/>
      <point x="762" y="1384"/>
      <point x="763" y="1392"/>
      <point x="763" y="1400" type="curve" smooth="yes"/>
      <point x="763" y="1420"/>
      <point x="757" y="1438"/>
      <point x="749" y="1438" type="curve" smooth="yes"/>
      <point x="576" y="1438" type="line" smooth="yes"/>
      <point x="561" y="1438"/>
      <point x="544" y="1414"/>
      <point x="535" y="1376" type="curve" smooth="yes"/>
      <point x="416" y="880" type="line"/>
      <point x="294" y="1377" type="line" smooth="yes"/>
      <point x="284" y="1415"/>
      <point x="268" y="1438"/>
      <point x="251" y="1438" type="curve" smooth="yes"/>
      <point x="43" y="1438" type="line" smooth="yes"/>
      <point x="35" y="1438"/>
      <point x="30" y="1420"/>
      <point x="30" y="1401" type="curve" smooth="yes"/>
      <point x="30" y="1393"/>
      <point x="31" y="1385"/>
      <point x="33" y="1377" type="curve"/>
      <point x="273" y="437" type="line"/>
      <point x="273" y="50" type="line" smooth="yes"/>
      <point x="273" y="7"/>
      <point x="283" y="0"/>
    </contour>
    <contour>
      <point x="395" y="1438" type="move" name="top"/>
    </contour>
  </outline>
</glyph>
<glyph name="Z" format="1">
  <advance width="762"/>
  <unicode hex="005A"/>
  <outline>
    <contour>
      <point x="110" y="0" type="curve" smooth="yes"/>
      <point x="684" y="0" type="line" smooth="yes"/>
      <point x="699" y="0"/>
      <point x="711" y="4"/>
      <point x="711" y="46" type="curve" smooth="yes"/>
      <point x="711" y="168" type="line" smooth="yes"/>
      <point x="711" y="210"/>
      <point x="699" y="204"/>
      <point x="684" y="204" type="curve" smooth="yes"/>
      <point x="384" y="204" type="line" smooth="yes"/>
      <point x="381" y="204"/>
      <point x="379" y="211"/>
      <point x="379" y="218" type="curve" smooth="yes"/>
      <point x="379" y="223"/>
      <point x="379" y="226"/>
      <point x="380" y="229" type="curve" smooth="yes"/>
      <point x="677" y="1216" type="line" smooth="yes"/>
      <point x="685" y="1247"/>
      <point x="696" y="1281"/>
      <point x="696" y="1328" type="curve" smooth="yes"/>
      <point x="696" y="1392" type="line" smooth="yes"/>
      <point x="696" y="1434"/>
      <point x="684" y="1438"/>
      <point x="670" y="1438" type="curve" smooth="yes"/>
      <point x="121" y="1438" type="line" smooth="yes"/>
      <point x="107" y="1438"/>
      <point x="95" y="1434"/>
      <point x="95" y="1392" type="curve" smooth="yes"/>
      <point x="95" y="1280" type="line" smooth="yes"/>
      <point x="95" y="1237"/>
      <point x="107" y="1234"/>
      <point x="121" y="1234" type="curve" smooth="yes"/>
      <point x="387" y="1234" type="line" smooth="yes"/>
      <point x="390" y="1234"/>
      <point x="392" y="1227"/>
      <point x="392" y="1219" type="curve" smooth="yes"/>
      <point x="392" y="1215"/>
      <point x="392" y="1212"/>
      <point x="390" y="1208" type="curve" smooth="yes"/>
      <point x="104" y="239" type="line" smooth="yes"/>
      <point x="95" y="208"/>
      <point x="84" y="178"/>
      <point x="84" y="133" type="curve" smooth="yes"/>
      <point x="84" y="46" type="line" smooth="yes"/>
      <point x="84" y="4"/>
      <point x="96" y="0"/>
    </contour>
    <contour>
      <point x="381" y="1438" type="move" name="top"/>
    </contour>
  </outline>
</glyph>
<glyph name="underscore" format="1">
  <advance width="1138"/>
  <unicode hex="005F"/>
  <outline>
    <contour>
      <point x="161" y="-184" type="curve" smooth="yes"/>
      <point x="974" y="-184" type="line" smooth="yes"/>
      <point x="1016" y="-184"/>
      <point x="1036" y="-165"/>
      <point x="1036" y="-123" type="curve" smooth="yes"/>
      <point x="1036" y="-57" type="line" smooth="yes"/>
      <point x="1036" y="-15"/>
      <point x="1016" y="3"/>
      <point x="974" y="3" type="curve" smooth="yes"/>
      <point x="161" y="3" type="line" smooth="yes"/>
      <point x="119" y="3"/>
      <point x="99" y="-15"/>
      <point x="99" y="-57" type="curve" smooth="yes"/>
      <point x="99" y="-123" type="line" smooth="yes"/>
      <point x="99" y="-165"/>
      <point x="119" y="-184"/>
    </contour>
  </outline>
</glyph>
<glyph name="grave" format="1">
  <advance width="598"/>
  <unicode hex="0060"/>
  <outline>
    <contour>
      <point x="425" y="1171" type="curve" smooth="yes"/>
      <point x="475" y="1171" type="line" smooth="yes"/>
      <point x="485" y="1171"/>
      <point x="490" y="1176"/>
      <point x="490" y="1203" type="curve" smooth="yes"/>
      <point x="490" y="1212"/>
      <point x="490" y="1224"/>
      <point x="489" y="1238" type="curve" smooth="yes"/>
      <point x="467" y="1566" type="line"/>
      <point x="464" y="1609"/>
      <point x="458" y="1621"/>
      <point x="443" y="1621" type="curve" smooth="yes"/>
      <point x="349" y="1621" type="line" smooth="yes"/>
      <point x="342" y="1621"/>
      <point x="339" y="1609"/>
      <point x="339" y="1593" type="curve" smooth="yes"/>
      <point x="339" y="1582"/>
      <point x="341" y="1568"/>
      <point x="343" y="1556" type="curve" smooth="yes"/>
      <point x="406" y="1210" type="line" smooth="yes"/>
      <point x="409" y="1193"/>
      <point x="413" y="1171"/>
    </contour>
    <contour>
      <point x="414" y="1006" type="move" name="_top"/>
    </contour>
  </outline>
</glyph>
<glyph name="a" format="1">
  <advance width="760"/>
  <unicode hex="0061"/>
  <outline>
    <contour>
      <point x="292" y="-12" type="curve" smooth="yes"/>
      <point x="417" y="-12"/>
      <point x="471" y="50"/>
      <point x="509" y="153" type="curve" smooth="yes"/>
      <point x="510" y="157"/>
      <point x="514" y="159"/>
      <point x="517" y="153" type="curve" smooth="yes"/>
      <point x="522" y="141"/>
      <point x="562" y="61"/>
      <point x="567" y="46" type="curve" smooth="yes"/>
      <point x="579" y="13"/>
      <point x="591" y="0"/>
      <point x="604" y="0" type="curve" smooth="yes"/>
      <point x="648" y="0" type="line" smooth="yes"/>
      <point x="661" y="0"/>
      <point x="670" y="18"/>
      <point x="670" y="53" type="curve" smooth="yes"/>
      <point x="670" y="582" type="line" smooth="yes"/>
      <point x="670" y="926"/>
      <point x="553" y="1017"/>
      <point x="393" y="1017" type="curve" smooth="yes"/>
      <point x="227" y="1017"/>
      <point x="142" y="947"/>
      <point x="110" y="816" type="curve" smooth="yes"/>
      <point x="103" y="788"/>
      <point x="106" y="749"/>
      <point x="116" y="747" type="curve" smooth="yes"/>
      <point x="117" y="746"/>
      <point x="253" y="709"/>
      <point x="256" y="709" type="curve" smooth="yes"/>
      <point x="263" y="708"/>
      <point x="270" y="713"/>
      <point x="276" y="733" type="curve" smooth="yes"/>
      <point x="294" y="808"/>
      <point x="324" y="848"/>
      <point x="376" y="848" type="curve" smooth="yes"/>
      <point x="444" y="848"/>
      <point x="469" y="789"/>
      <point x="469" y="668" type="curve" smooth="yes"/>
      <point x="469" y="618" type="line"/>
      <point x="465" y="575"/>
      <point x="81" y="643"/>
      <point x="81" y="238" type="curve" smooth="yes"/>
      <point x="81" y="64"/>
      <point x="169" y="-12"/>
    </contour>
    <contour>
      <point x="340" y="146" type="curve" smooth="yes"/>
      <point x="293" y="146"/>
      <point x="268" y="187"/>
      <point x="268" y="251" type="curve" smooth="yes"/>
      <point x="268" y="382"/>
      <point x="343" y="443"/>
      <point x="452" y="479" type="curve" smooth="yes"/>
      <point x="454" y="480"/>
      <point x="463" y="482"/>
      <point x="464" y="482" type="curve" smooth="yes"/>
      <point x="473" y="482"/>
      <point x="473" y="412"/>
      <point x="473" y="398" type="curve" smooth="yes"/>
      <point x="473" y="276"/>
      <point x="416" y="146"/>
    </contour>
    <contour>
      <point x="380" y="1006" type="move" name="top"/>
    </contour>
    <contour>
      <point x="684" y="10" type="move" name="ogonek"/>
    </contour>
  </outline>
</glyph>
<glyph name="f" format="1">
  <advance width="518"/>
  <unicode hex="0066"/>
  <outline>
    <contour>
      <point x="150" y="0" type="curve" smooth="yes"/>
      <point x="308" y="0" type="line" smooth="yes"/>
      <point x="322" y="0"/>
      <point x="334" y="10"/>
      <point x="334" y="53" type="curve" smooth="yes"/>
      <point x="334" y="784" type="line" smooth="yes"/>
      <point x="334" y="804"/>
      <point x="336" y="820"/>
      <point x="342" y="820" type="curve" smooth="yes"/>
      <point x="477" y="820" type="line" smooth="yes"/>
      <point x="492" y="820"/>
      <point x="500" y="829"/>
      <point x="500" y="871" type="curve" smooth="yes"/>
      <point x="500" y="953" type="line" smooth="yes"/>
      <point x="500" y="995"/>
      <point x="492" y="1006"/>
      <point x="477" y="1006" type="curve" smooth="yes"/>
      <point x="336" y="1006" type="line" smooth="yes"/>
      <point x="336" y="1006"/>
      <point x="334" y="1009"/>
      <point x="334" y="1012" type="curve" smooth="yes"/>
      <point x="334" y="1105" type="line" smooth="yes"/>
      <point x="334" y="1237"/>
      <point x="369" y="1283"/>
      <point x="424" y="1283" type="curve" smooth="yes"/>
      <point x="494" y="1283" type="line" smooth="yes"/>
      <point x="506" y="1283"/>
      <point x="507" y="1296"/>
      <point x="507" y="1333" type="curve" smooth="yes"/>
      <point x="507" y="1422" type="line" smooth="yes"/>
      <point x="507" y="1450"/>
      <point x="494" y="1460"/>
      <point x="482" y="1463" type="curve" smooth="yes"/>
      <point x="462" y="1468"/>
      <point x="404" y="1473"/>
      <point x="361" y="1473" type="curve" smooth="yes"/>
      <point x="235" y="1473"/>
      <point x="124" y="1411"/>
      <point x="124" y="1044" type="curve" smooth="yes"/>
      <point x="124" y="1022"/>
      <point x="124" y="1006"/>
      <point x="117" y="1006" type="curve" smooth="yes"/>
      <point x="65" y="1006" type="line" smooth="yes"/>
      <point x="50" y="1006"/>
      <point x="42" y="989"/>
      <point x="42" y="947" type="curve" smooth="yes"/>
      <point x="42" y="871" type="line" smooth="yes"/>
      <point x="42" y="829"/>
      <point x="50" y="820"/>
      <point x="65" y="820" type="curve" smooth="yes"/>
      <point x="117" y="820" type="line" smooth="yes"/>
      <point x="124" y="820"/>
      <point x="124" y="804"/>
      <point x="124" y="784" type="curve" smooth="yes"/>
      <point x="124" y="53" type="line" smooth="yes"/>
      <point x="124" y="10"/>
      <point x="136" y="0"/>
    </contour>
  </outline>
</glyph>
<glyph name="g" format="1">
  <advance width="774"/>
  <unicode hex="0067"/>
  <outline>
    <contour>
      <point x="369" y="-317" type="curve" smooth="yes"/>
      <point x="501" y="-317"/>
      <point x="766" y="-277"/>
      <point x="766" y="-25" type="curve" smooth="yes"/>
      <point x="766" y="142"/>
      <point x="668" y="197"/>
      <point x="447" y="197" type="curve" smooth="yes"/>
      <point x="347" y="197" type="line" smooth="yes"/>
      <point x="281" y="197"/>
      <point x="242" y="220"/>
      <point x="242" y="282" type="curve" smooth="yes"/>
      <point x="242" y="329"/>
      <point x="267" y="379"/>
      <point x="275" y="381" type="curve"/>
      <point x="306" y="362"/>
      <point x="366" y="343"/>
      <point x="409" y="343" type="curve" smooth="yes"/>
      <point x="603" y="343"/>
      <point x="722" y="462"/>
      <point x="722" y="674" type="curve" smooth="yes"/>
      <point x="722" y="855"/>
      <point x="628" y="920"/>
      <point x="578" y="954" type="curve" smooth="yes"/>
      <point x="561" y="965"/>
      <point x="552" y="969"/>
      <point x="558" y="998" type="curve" smooth="yes"/>
      <point x="624" y="1286" type="line" smooth="yes"/>
      <point x="627" y="1295"/>
      <point x="622" y="1331"/>
      <point x="613" y="1331" type="curve" smooth="yes"/>
      <point x="510" y="1331" type="line" smooth="yes"/>
      <point x="495" y="1331"/>
      <point x="479" y="1329"/>
      <point x="479" y="1286" type="curve" smooth="yes"/>
      <point x="478" y="1019" type="line" smooth="yes"/>
      <point x="477" y="1004"/>
      <point x="471" y="1004"/>
      <point x="456" y="1007" type="curve" smooth="yes"/>
      <point x="440" y="1010"/>
      <point x="416" y="1017"/>
      <point x="382" y="1017" type="curve" smooth="yes"/>
      <point x="171" y="1017"/>
      <point x="61" y="874"/>
      <point x="61" y="672" type="curve" smooth="yes"/>
      <point x="61" y="560"/>
      <point x="121" y="473"/>
      <point x="148" y="449" type="curve" smooth="yes"/>
      <point x="153" y="443"/>
      <point x="156" y="436"/>
      <point x="156" y="429" type="curve" smooth="yes"/>
      <point x="156" y="424"/>
      <point x="153" y="417"/>
      <point x="147" y="409" type="curve" smooth="yes"/>
      <point x="110" y="363"/>
      <point x="66" y="313"/>
      <point x="66" y="210" type="curve" smooth="yes"/>
      <point x="66" y="115"/>
      <point x="121" y="119"/>
      <point x="183" y="97" type="curve" smooth="yes"/>
      <point x="187" y="94"/>
      <point x="187" y="87"/>
      <point x="187" y="80" type="curve" smooth="yes"/>
      <point x="187" y="75"/>
      <point x="187" y="69"/>
      <point x="184" y="65" type="curve" smooth="yes"/>
      <point x="124" y="-17"/>
      <point x="92" y="-77"/>
      <point x="92" y="-150" type="curve" smooth="yes"/>
      <point x="92" y="-261"/>
      <point x="203" y="-317"/>
    </contour>
    <contour>
      <point x="395" y="-191" type="curve" smooth="yes"/>
      <point x="303" y="-191"/>
      <point x="285" y="-144"/>
      <point x="285" y="-101" type="curve" smooth="yes"/>
      <point x="285" y="-29"/>
      <point x="335" y="74"/>
      <point x="344" y="74" type="curve" smooth="yes"/>
      <point x="457" y="74" type="line" smooth="yes"/>
      <point x="522" y="74"/>
      <point x="589" y="50"/>
      <point x="589" y="-43" type="curve" smooth="yes"/>
      <point x="589" y="-133"/>
      <point x="517" y="-191"/>
    </contour>
    <contour>
      <point x="402" y="477" type="curve" smooth="yes"/>
      <point x="347" y="477"/>
      <point x="278" y="536"/>
      <point x="278" y="682" type="curve" smooth="yes"/>
      <point x="278" y="827"/>
      <point x="345" y="885"/>
      <point x="401" y="885" type="curve" smooth="yes"/>
      <point x="455" y="885"/>
      <point x="523" y="815"/>
      <point x="523" y="670" type="curve" smooth="yes"/>
      <point x="523" y="543"/>
      <point x="460" y="477"/>
    </contour>
    <contour>
      <point x="387" y="1006" type="move" name="top"/>
    </contour>
  </outline>
</glyph>
<glyph name="q" format="1">
  <advance width="809"/>
  <unicode hex="0071"/>
  <outline>
    <contour>
      <point x="526" y="-305" type="curve" smooth="yes"/>
      <point x="679" y="-305" type="line" smooth="yes"/>
      <point x="693" y="-305"/>
      <point x="702" y="-301"/>
      <point x="702" y="-258" type="curve" smooth="yes"/>
      <point x="702" y="944" type="line" smooth="yes"/>
      <point x="702" y="987"/>
      <point x="691" y="1006"/>
      <point x="677" y="1006" type="curve" smooth="yes"/>
      <point x="640" y="1006" type="line" smooth="yes"/>
      <point x="626" y="1006"/>
      <point x="609" y="996"/>
      <point x="600" y="956" type="curve" smooth="yes"/>
      <point x="600" y="955"/>
      <point x="571" y="801"/>
      <point x="571" y="799" type="curve" smooth="yes"/>
      <point x="569" y="791"/>
      <point x="566" y="788"/>
      <point x="564" y="788" type="curve" smooth="yes"/>
      <point x="561" y="788"/>
      <point x="559" y="791"/>
      <point x="557" y="798" type="curve" smooth="yes"/>
      <point x="519" y="961"/>
      <point x="425" y="1017"/>
      <point x="342" y="1017" type="curve" smooth="yes"/>
      <point x="211" y="1017"/>
      <point x="82" y="880"/>
      <point x="82" y="512" type="curve" smooth="yes"/>
      <point x="82" y="122"/>
      <point x="184" y="-10"/>
      <point x="331" y="-10" type="curve" smooth="yes"/>
      <point x="393" y="-10"/>
      <point x="454" y="34"/>
      <point x="485" y="119" type="curve" smooth="yes"/>
      <point x="486" y="123"/>
      <point x="490" y="125"/>
      <point x="493" y="125" type="curve" smooth="yes"/>
      <point x="498" y="125"/>
      <point x="502" y="121"/>
      <point x="502" y="110" type="curve" smooth="yes"/>
      <point x="502" y="-258" type="line" smooth="yes"/>
      <point x="502" y="-301"/>
      <point x="512" y="-305"/>
    </contour>
    <contour>
      <point x="395" y="159" type="curve" smooth="yes"/>
      <point x="331" y="159"/>
      <point x="300" y="266"/>
      <point x="300" y="497" type="curve" smooth="yes"/>
      <point x="300" y="717"/>
      <point x="331" y="848"/>
      <point x="397" y="848" type="curve" smooth="yes"/>
      <point x="466" y="848"/>
      <point x="502" y="723"/>
      <point x="502" y="497" type="curve" smooth="yes"/>
      <point x="502" y="267"/>
      <point x="465" y="159"/>
    </contour>
  </outline>
</glyph>
<glyph name="x" format="1">
  <advance width="729"/>
  <unicode hex="0078"/>
  <outline>
    <contour>
      <point x="59" y="0" type="curve" smooth="yes"/>
      <point x="225" y="0" type="line" smooth="yes"/>
      <point x="240" y="0"/>
      <point x="258" y="18"/>
      <point x="271" y="47" type="curve"/>
      <point x="273" y="50"/>
      <point x="348" y="236"/>
      <point x="351" y="243" type="curve"/>
      <point x="355" y="250"/>
      <point x="358" y="253"/>
      <point x="361" y="253" type="curve" smooth="yes"/>
      <point x="365" y="253"/>
      <point x="369" y="249"/>
      <point x="371" y="242" type="curve" smooth="yes"/>
      <point x="374" y="235"/>
      <point x="439" y="52"/>
      <point x="440" y="50" type="curve"/>
      <point x="452" y="20"/>
      <point x="470" y="0"/>
      <point x="486" y="0" type="curve" smooth="yes"/>
      <point x="686" y="0" type="line" smooth="yes"/>
      <point x="692" y="0"/>
      <point x="696" y="13"/>
      <point x="696" y="27" type="curve" smooth="yes"/>
      <point x="696" y="35"/>
      <point x="695" y="43"/>
      <point x="692" y="48" type="curve" smooth="yes"/>
      <point x="689" y="57"/>
      <point x="485" y="541"/>
      <point x="483" y="547" type="curve"/>
      <point x="481" y="552"/>
      <point x="479" y="561"/>
      <point x="479" y="569" type="curve" smooth="yes"/>
      <point x="479" y="578"/>
      <point x="481" y="585"/>
      <point x="484" y="591" type="curve" smooth="yes"/>
      <point x="487" y="599"/>
      <point x="651" y="954"/>
      <point x="653" y="960" type="curve"/>
      <point x="656" y="966"/>
      <point x="657" y="973"/>
      <point x="657" y="981" type="curve" smooth="yes"/>
      <point x="657" y="993"/>
      <point x="654" y="1006"/>
      <point x="648" y="1006" type="curve" smooth="yes"/>
      <point x="496" y="1006" type="line" smooth="yes"/>
      <point x="480" y="1006"/>
      <point x="462" y="987"/>
      <point x="449" y="958" type="curve" smooth="yes"/>
      <point x="448" y="955"/>
      <point x="382" y="803"/>
      <point x="379" y="797" type="curve" smooth="yes"/>
      <point x="376" y="791"/>
      <point x="373" y="788"/>
      <point x="370" y="788" type="curve" smooth="yes"/>
      <point x="367" y="788"/>
      <point x="363" y="791"/>
      <point x="360" y="798" type="curve" smooth="yes"/>
      <point x="356" y="806"/>
      <point x="295" y="953"/>
      <point x="294" y="956" type="curve" smooth="yes"/>
      <point x="281" y="987"/>
      <point x="264" y="1006"/>
      <point x="248" y="1006" type="curve" smooth="yes"/>
      <point x="51" y="1006" type="line" smooth="yes"/>
      <point x="45" y="1006"/>
      <point x="41" y="993"/>
      <point x="41" y="979" type="curve" smooth="yes"/>
      <point x="41" y="971"/>
      <point x="43" y="963"/>
      <point x="45" y="958" type="curve" smooth="yes"/>
      <point x="46" y="955"/>
      <point x="236" y="504"/>
      <point x="240" y="495" type="curve"/>
      <point x="241" y="490"/>
      <point x="243" y="481"/>
      <point x="243" y="473" type="curve" smooth="yes"/>
      <point x="243" y="465"/>
      <point x="241" y="457"/>
      <point x="239" y="451" type="curve" smooth="yes"/>
      <point x="236" y="444"/>
      <point x="56" y="53"/>
      <point x="53" y="46" type="curve" smooth="yes"/>
      <point x="51" y="40"/>
      <point x="51" y="33"/>
      <point x="51" y="26" type="curve" smooth="yes"/>
      <point x="51" y="13"/>
      <point x="54" y="0"/>
    </contour>
  </outline>
</glyph>
<glyph name="z" format="1">
  <advance width="624"/>
  <unicode hex="007A"/>
  <outline>
    <contour>
      <point x="102" y="0" type="curve" smooth="yes"/>
      <point x="546" y="0" type="line" smooth="yes"/>
      <point x="552" y="0"/>
      <point x="559" y="10"/>
      <point x="559" y="29" type="curve" smooth="yes"/>
      <point x="559" y="161" type="line" smooth="yes"/>
      <point x="559" y="181"/>
      <point x="552" y="194"/>
      <point x="546" y="192" type="curve" smooth="yes"/>
      <point x="327" y="192" type="line"/>
      <point x="539" y="745" type="line" smooth="yes"/>
      <point x="545" y="760"/>
      <point x="549" y="775"/>
      <point x="549" y="798" type="curve" smooth="yes"/>
      <point x="549" y="976" type="line" smooth="yes"/>
      <point x="549" y="995"/>
      <point x="543" y="1006"/>
      <point x="537" y="1006" type="curve" smooth="yes"/>
      <point x="101" y="1006" type="line" smooth="yes"/>
      <point x="95" y="1006"/>
      <point x="89" y="995"/>
      <point x="89" y="976" type="curve" smooth="yes"/>
      <point x="89" y="840" type="line" smooth="yes"/>
      <point x="89" y="820"/>
      <point x="95" y="811"/>
      <point x="101" y="813" type="curve" smooth="yes"/>
      <point x="322" y="813" type="line"/>
      <point x="98" y="240" type="line" smooth="yes"/>
      <point x="92" y="225"/>
      <point x="87" y="208"/>
      <point x="87" y="185" type="curve" smooth="yes"/>
      <point x="87" y="29" type="line" smooth="yes"/>
      <point x="87" y="10"/>
      <point x="95" y="0"/>
    </contour>
    <contour>
      <point x="312" y="1006" type="move" name="top"/>
    </contour>
  </outline>
</glyph>
<glyph name="bar" format="1">
  <advance width="352"/>
  <unicode hex="007C"/>
  <outline>
    <contour>
      <point x="149" y="-150" type="curve" smooth="yes"/>
      <point x="202" y="-150" type="line" smooth="yes"/>
      <point x="217" y="-150"/>
      <point x="229" y="-117"/>
      <point x="229" y="-74" type="curve" smooth="yes"/>
      <point x="229" y="1479" type="line" smooth="yes"/>
      <point x="229" y="1522"/>
      <point x="217" y="1555"/>
      <point x="202" y="1555" type="curve" smooth="yes"/>
      <point x="149" y="1555" type="line" smooth="yes"/>
      <point x="134" y="1555"/>
      <point x="122" y="1522"/>
      <point x="122" y="1479" type="curve" smooth="yes"/>
      <point x="122" y="-74" type="line" smooth="yes"/>
      <point x="122" y="-117"/>
      <point x="134" y="-150"/>
    </contour>
  </outline>
</glyph>
<glyph name="currency" format="1">
  <advance width="1307"/>
  <unicode hex="00A4"/>
  <outline>
    <contour>
      <point x="653" y="439" type="curve" smooth="yes"/>
      <point x="785" y="439"/>
      <point x="873" y="471"/>
      <point x="958" y="527" type="curve"/>
      <point x="988" y="496" type="line" smooth="yes"/>
      <point x="1008" y="475"/>
      <point x="1026" y="457"/>
      <point x="1045" y="457" type="curve" smooth="yes"/>
      <point x="1052" y="457"/>
      <point x="1060" y="461"/>
      <point x="1069" y="469" type="curve" smooth="yes"/>
      <point x="1101" y="502" type="line" smooth="yes"/>
      <point x="1111" y="512"/>
      <point x="1115" y="521"/>
      <point x="1115" y="530" type="curve" smooth="yes"/>
      <point x="1115" y="548"/>
      <point x="1098" y="565"/>
      <point x="1077" y="586" type="curve" smooth="yes"/>
      <point x="1053" y="610" type="line"/>
      <point x="1130" y="699"/>
      <point x="1169" y="813"/>
      <point x="1169" y="938" type="curve" smooth="yes"/>
      <point x="1169" y="1064"/>
      <point x="1129" y="1181"/>
      <point x="1050" y="1271" type="curve"/>
      <point x="1077" y="1297" type="line" smooth="yes"/>
      <point x="1098" y="1318"/>
      <point x="1116" y="1336"/>
      <point x="1116" y="1354" type="curve" smooth="yes"/>
      <point x="1116" y="1362"/>
      <point x="1112" y="1369"/>
      <point x="1104" y="1378" type="curve" smooth="yes"/>
      <point x="1071" y="1410" type="line" smooth="yes"/>
      <point x="1061" y="1420"/>
      <point x="1052" y="1424"/>
      <point x="1044" y="1424" type="curve" smooth="yes"/>
      <point x="1025" y="1424"/>
      <point x="1008" y="1407"/>
      <point x="987" y="1386" type="curve" smooth="yes"/>
      <point x="955" y="1354" type="line"/>
      <point x="871" y="1408"/>
      <point x="783" y="1441"/>
      <point x="653" y="1441" type="curve" smooth="yes"/>
      <point x="522" y="1441"/>
      <point x="436" y="1408"/>
      <point x="352" y="1354" type="curve"/>
      <point x="319" y="1387" type="line" smooth="yes"/>
      <point x="299" y="1407"/>
      <point x="282" y="1424"/>
      <point x="264" y="1424" type="curve" smooth="yes"/>
      <point x="255" y="1424"/>
      <point x="245" y="1420"/>
      <point x="235" y="1410" type="curve" smooth="yes"/>
      <point x="203" y="1378" type="line" smooth="yes"/>
      <point x="194" y="1370"/>
      <point x="190" y="1362"/>
      <point x="190" y="1354" type="curve" smooth="yes"/>
      <point x="190" y="1336"/>
      <point x="208" y="1318"/>
      <point x="229" y="1297" type="curve" smooth="yes"/>
      <point x="256" y="1271" type="line"/>
      <point x="178" y="1181"/>
      <point x="137" y="1064"/>
      <point x="137" y="938" type="curve" smooth="yes"/>
      <point x="137" y="813"/>
      <point x="177" y="698"/>
      <point x="254" y="610" type="curve"/>
      <point x="229" y="585" type="line" smooth="yes"/>
      <point x="209" y="565"/>
      <point x="192" y="548"/>
      <point x="192" y="530" type="curve" smooth="yes"/>
      <point x="192" y="521"/>
      <point x="196" y="511"/>
      <point x="206" y="501" type="curve" smooth="yes"/>
      <point x="238" y="469" type="line" smooth="yes"/>
      <point x="246" y="460"/>
      <point x="255" y="457"/>
      <point x="263" y="457" type="curve" smooth="yes"/>
      <point x="280" y="457"/>
      <point x="298" y="475"/>
      <point x="319" y="496" type="curve" smooth="yes"/>
      <point x="349" y="527" type="line"/>
      <point x="433" y="471"/>
      <point x="520" y="439"/>
    </contour>
    <contour>
      <point x="653" y="558" type="curve" smooth="yes"/>
      <point x="376" y="558"/>
      <point x="272" y="761"/>
      <point x="272" y="937" type="curve" smooth="yes"/>
      <point x="272" y="1123"/>
      <point x="376" y="1321"/>
      <point x="653" y="1321" type="curve" smooth="yes"/>
      <point x="930" y="1321"/>
      <point x="1034" y="1123"/>
      <point x="1034" y="937" type="curve" smooth="yes"/>
      <point x="1034" y="761"/>
      <point x="930" y="558"/>
    </contour>
  </outline>
</glyph>
<glyph name="section" format="1">
  <advance width="905"/>
  <unicode hex="00A7"/>
  <outline>
    <contour>
      <point x="461" y="-16" type="curve" smooth="yes"/>
      <point x="728" y="-16"/>
      <point x="820" y="94"/>
      <point x="820" y="317" type="curve" smooth="yes"/>
      <point x="820" y="416"/>
      <point x="789" y="479"/>
      <point x="753" y="525" type="curve"/>
      <point x="784" y="576"/>
      <point x="820" y="648"/>
      <point x="820" y="728" type="curve" smooth="yes"/>
      <point x="820" y="997"/>
      <point x="686" y="1011"/>
      <point x="482" y="1044" type="curve" smooth="yes"/>
      <point x="340" y="1068"/>
      <point x="277" y="1082"/>
      <point x="277" y="1163" type="curve" smooth="yes"/>
      <point x="277" y="1244"/>
      <point x="308" y="1287"/>
      <point x="472" y="1287" type="curve" smooth="yes"/>
      <point x="589" y="1287"/>
      <point x="626" y="1262"/>
      <point x="688" y="1227" type="curve"/>
      <point x="709" y="1214"/>
      <point x="736" y="1221"/>
      <point x="745" y="1256" type="curve"/>
      <point x="745" y="1256"/>
      <point x="762" y="1319"/>
      <point x="762" y="1325" type="curve"/>
      <point x="762" y="1344"/>
      <point x="753" y="1361"/>
      <point x="739" y="1369" type="curve"/>
      <point x="646" y="1431"/>
      <point x="574" y="1452"/>
      <point x="446" y="1452" type="curve" smooth="yes"/>
      <point x="313" y="1452"/>
      <point x="98" y="1424"/>
      <point x="98" y="1136" type="curve" smooth="yes"/>
      <point x="98" y="1044"/>
      <point x="126" y="981"/>
      <point x="172" y="938" type="curve"/>
      <point x="129" y="888"/>
      <point x="98" y="814"/>
      <point x="98" y="727" type="curve" smooth="yes"/>
      <point x="98" y="494"/>
      <point x="253" y="472"/>
      <point x="445" y="439" type="curve" smooth="yes"/>
      <point x="590" y="415"/>
      <point x="648" y="382"/>
      <point x="648" y="297" type="curve" smooth="yes"/>
      <point x="648" y="207"/>
      <point x="601" y="145"/>
      <point x="484" y="145" type="curve" smooth="yes"/>
      <point x="352" y="145"/>
      <point x="272" y="169"/>
      <point x="168" y="234" type="curve"/>
      <point x="146" y="247"/>
      <point x="124" y="230"/>
      <point x="113" y="192" type="curve"/>
      <point x="113" y="192"/>
      <point x="98" y="133"/>
      <point x="98" y="126" type="curve"/>
      <point x="98" y="106"/>
      <point x="107" y="91"/>
      <point x="121" y="82" type="curve"/>
      <point x="228" y="8"/>
      <point x="350" y="-16"/>
    </contour>
    <contour>
      <point x="644" y="597" type="curve"/>
      <point x="592" y="616"/>
      <point x="555" y="619"/>
      <point x="482" y="634" type="curve" smooth="yes"/>
      <point x="349" y="663"/>
      <point x="247" y="688"/>
      <point x="247" y="757" type="curve" smooth="yes"/>
      <point x="247" y="798"/>
      <point x="259" y="848"/>
      <point x="276" y="883" type="curve"/>
      <point x="327" y="864"/>
      <point x="378" y="857"/>
      <point x="445" y="848" type="curve" smooth="yes"/>
      <point x="609" y="825"/>
      <point x="681" y="802"/>
      <point x="681" y="716" type="curve" smooth="yes"/>
      <point x="681" y="685"/>
      <point x="647" y="599"/>
    </contour>
  </outline>
</glyph>
<glyph name="guillemotleft" format="1">
  <advance width="905"/>
  <unicode hex="00AB"/>
  <outline>
    <contour>
      <point x="409" y="208" type="curve" smooth="yes"/>
      <point x="412" y="204"/>
      <point x="415" y="202"/>
      <point x="417" y="204" type="curve" smooth="yes"/>
      <point x="423" y="204"/>
      <point x="431" y="223"/>
      <point x="431" y="249" type="curve" smooth="yes"/>
      <point x="431" y="251"/>
      <point x="431" y="403"/>
      <point x="430" y="404" type="curve" smooth="yes"/>
      <point x="430" y="447"/>
      <point x="409" y="501"/>
      <point x="395" y="520" type="curve" smooth="yes"/>
      <point x="395" y="520"/>
      <point x="232" y="670"/>
      <point x="232" y="671" type="curve" smooth="yes"/>
      <point x="229" y="673"/>
      <point x="228" y="681"/>
      <point x="228" y="686" type="curve" smooth="yes"/>
      <point x="228" y="692"/>
      <point x="240" y="712"/>
      <point x="243" y="714" type="curve" smooth="yes"/>
      <point x="244" y="715"/>
      <point x="408" y="864"/>
      <point x="408" y="866" type="curve" smooth="yes"/>
      <point x="422" y="884"/>
      <point x="431" y="926"/>
      <point x="431" y="970" type="curve" smooth="yes"/>
      <point x="431" y="971"/>
      <point x="431" y="1108"/>
      <point x="431" y="1108" type="curve" smooth="yes"/>
      <point x="430" y="1133"/>
      <point x="423" y="1151"/>
      <point x="415" y="1151" type="curve" smooth="yes"/>
      <point x="413" y="1151"/>
      <point x="398" y="1135"/>
      <point x="394" y="1132" type="curve" smooth="yes"/>
      <point x="393" y="1131"/>
      <point x="130" y="871"/>
      <point x="130" y="870" type="curve" smooth="yes"/>
      <point x="112" y="853"/>
      <point x="108" y="804"/>
      <point x="108" y="759" type="curve" smooth="yes"/>
      <point x="108" y="758"/>
      <point x="108" y="602"/>
      <point x="109" y="601" type="curve" smooth="yes"/>
      <point x="109" y="556"/>
      <point x="127" y="497"/>
      <point x="144" y="479" type="curve" smooth="yes"/>
      <point x="144" y="479"/>
      <point x="409" y="208"/>
    </contour>
    <contour>
      <point x="796" y="208" type="curve" smooth="yes"/>
      <point x="799" y="204"/>
      <point x="802" y="202"/>
      <point x="804" y="204" type="curve" smooth="yes"/>
      <point x="811" y="204"/>
      <point x="818" y="223"/>
      <point x="818" y="249" type="curve" smooth="yes"/>
      <point x="818" y="251"/>
      <point x="818" y="403"/>
      <point x="817" y="404" type="curve" smooth="yes"/>
      <point x="817" y="447"/>
      <point x="797" y="501"/>
      <point x="782" y="520" type="curve" smooth="yes"/>
      <point x="782" y="520"/>
      <point x="619" y="670"/>
      <point x="619" y="671" type="curve" smooth="yes"/>
      <point x="616" y="673"/>
      <point x="615" y="681"/>
      <point x="615" y="686" type="curve" smooth="yes"/>
      <point x="615" y="692"/>
      <point x="627" y="712"/>
      <point x="630" y="714" type="curve" smooth="yes"/>
      <point x="631" y="715"/>
      <point x="795" y="864"/>
      <point x="795" y="866" type="curve" smooth="yes"/>
      <point x="809" y="884"/>
      <point x="818" y="926"/>
      <point x="818" y="970" type="curve" smooth="yes"/>
      <point x="818" y="971"/>
      <point x="818" y="1108"/>
      <point x="818" y="1108" type="curve" smooth="yes"/>
      <point x="818" y="1133"/>
      <point x="810" y="1151"/>
      <point x="802" y="1151" type="curve" smooth="yes"/>
      <point x="800" y="1151"/>
      <point x="785" y="1135"/>
      <point x="781" y="1132" type="curve" smooth="yes"/>
      <point x="780" y="1131"/>
      <point x="517" y="871"/>
      <point x="517" y="870" type="curve" smooth="yes"/>
      <point x="499" y="853"/>
      <point x="495" y="804"/>
      <point x="495" y="759" type="curve" smooth="yes"/>
      <point x="495" y="758"/>
      <point x="495" y="602"/>
      <point x="496" y="601" type="curve" smooth="yes"/>
      <point x="496" y="556"/>
      <point x="514" y="497"/>
      <point x="531" y="479" type="curve" smooth="yes"/>
      <point x="531" y="479"/>
      <point x="796" y="208"/>
    </contour>
  </outline>
</glyph>
<glyph name="registered" format="1">
  <advance width="1506"/>
  <unicode hex="00AE"/>
  <outline>
    <contour>
      <point x="543" y="370" type="curve" smooth="yes"/>
      <point x="626" y="370" type="line" smooth="yes"/>
      <point x="636" y="370"/>
      <point x="644" y="387"/>
      <point x="644" y="407" type="curve" smooth="yes"/>
      <point x="644" y="645" type="line" smooth="yes"/>
      <point x="644" y="654"/>
      <point x="648" y="663"/>
      <point x="652" y="663" type="curve" smooth="yes"/>
      <point x="798" y="663" type="line" smooth="yes"/>
      <point x="833" y="663"/>
      <point x="850" y="650"/>
      <point x="867" y="613" type="curve" smooth="yes"/>
      <point x="877" y="595"/>
      <point x="896" y="489"/>
      <point x="896" y="407" type="curve" smooth="yes"/>
      <point x="898" y="382"/>
      <point x="901" y="370"/>
      <point x="915" y="370" type="curve" smooth="yes"/>
      <point x="1005" y="370" type="line" smooth="yes"/>
      <point x="1011" y="370"/>
      <point x="1014" y="381"/>
      <point x="1014" y="394" type="curve" smooth="yes"/>
      <point x="1014" y="404"/>
      <point x="1012" y="443"/>
      <point x="1010" y="472" type="curve" smooth="yes"/>
      <point x="1004" y="599"/>
      <point x="969" y="681"/>
      <point x="915" y="704" type="curve" smooth="yes"/>
      <point x="915" y="704"/>
      <point x="915" y="708"/>
      <point x="915" y="708" type="curve" smooth="yes"/>
      <point x="964" y="723"/>
      <point x="1000" y="768"/>
      <point x="1000" y="876" type="curve" smooth="yes"/>
      <point x="1000" y="1086"/>
      <point x="897" y="1097"/>
      <point x="775" y="1097" type="curve" smooth="yes"/>
      <point x="543" y="1097" type="line" smooth="yes"/>
      <point x="533" y="1097"/>
      <point x="524" y="1082"/>
      <point x="524" y="1060" type="curve" smooth="yes"/>
      <point x="524" y="407" type="line" smooth="yes"/>
      <point x="524" y="387"/>
      <point x="533" y="370"/>
    </contour>
    <contour>
      <point x="652" y="768" type="line"/>
      <point x="648" y="768"/>
      <point x="644" y="776"/>
      <point x="644" y="786" type="curve" smooth="yes"/>
      <point x="644" y="974" type="line" smooth="yes"/>
      <point x="644" y="984"/>
      <point x="648" y="991"/>
      <point x="652" y="991" type="curve" smooth="yes"/>
      <point x="795" y="991" type="line" smooth="yes"/>
      <point x="848" y="991"/>
      <point x="884" y="965"/>
      <point x="884" y="873" type="curve" smooth="yes"/>
      <point x="884" y="820"/>
      <point x="870" y="768"/>
      <point x="833" y="768" type="curve" smooth="yes"/>
    </contour>
    <contour>
      <point x="756" y="113" type="curve" smooth="yes"/>
      <point x="375" y="113"/>
      <point x="233" y="437"/>
      <point x="233" y="718" type="curve" smooth="yes"/>
      <point x="233" y="1010"/>
      <point x="375" y="1326"/>
      <point x="756" y="1326" type="curve" smooth="yes"/>
      <point x="1136" y="1326"/>
      <point x="1278" y="1010"/>
      <point x="1278" y="718" type="curve" smooth="yes"/>
      <point x="1278" y="437"/>
      <point x="1136" y="113"/>
    </contour>
    <contour>
      <point x="753" y="-18" type="curve" smooth="yes"/>
      <point x="1193" y="-18"/>
      <point x="1411" y="333"/>
      <point x="1411" y="722" type="curve" smooth="yes"/>
      <point x="1411" y="1111"/>
      <point x="1193" y="1461"/>
      <point x="753" y="1461" type="curve" smooth="yes"/>
      <point x="314" y="1461"/>
      <point x="96" y="1111"/>
      <point x="96" y="722" type="curve" smooth="yes"/>
      <point x="96" y="333"/>
      <point x="314" y="-18"/>
    </contour>
  </outline>
</glyph>
<glyph name="acute" format="1">
  <advance width="598"/>
  <unicode hex="00B4"/>
  <outline>
    <contour>
      <point x="354" y="1171" type="curve" smooth="yes"/>
      <point x="404" y="1171" type="line" smooth="yes"/>
      <point x="417" y="1171"/>
      <point x="420" y="1193"/>
      <point x="423" y="1210" type="curve" smooth="yes"/>
      <point x="486" y="1556" type="line" smooth="yes"/>
      <point x="488" y="1568"/>
      <point x="490" y="1582"/>
      <point x="490" y="1593" type="curve" smooth="yes"/>
      <point x="490" y="1609"/>
      <point x="486" y="1621"/>
      <point x="480" y="1621" type="curve" smooth="yes"/>
      <point x="387" y="1621" type="line" smooth="yes"/>
      <point x="372" y="1621"/>
      <point x="364" y="1609"/>
      <point x="361" y="1566" type="curve" smooth="yes"/>
      <point x="341" y="1238" type="line" smooth="yes"/>
      <point x="340" y="1224"/>
      <point x="339" y="1212"/>
      <point x="339" y="1203" type="curve" smooth="yes"/>
      <point x="339" y="1176"/>
      <point x="344" y="1171"/>
    </contour>
    <contour>
      <point x="414" y="1006" type="move" name="_top"/>
    </contour>
  </outline>
</glyph>
<glyph name="guillemotright" format="1">
  <advance width="905"/>
  <unicode hex="00BB"/>
  <outline>
    <contour>
      <point x="124" y="202" type="curve" smooth="yes"/>
      <point x="126" y="202"/>
      <point x="127" y="203"/>
      <point x="131" y="207" type="curve" smooth="yes"/>
      <point x="408" y="480" type="line" smooth="yes"/>
      <point x="427" y="498"/>
      <point x="431" y="545"/>
      <point x="431" y="590" type="curve" smooth="yes"/>
      <point x="431" y="749" type="line" smooth="yes"/>
      <point x="431" y="795"/>
      <point x="427" y="841"/>
      <point x="409" y="860" type="curve" smooth="yes"/>
      <point x="131" y="1145" type="line" smooth="yes"/>
      <point x="128" y="1149"/>
      <point x="125" y="1152"/>
      <point x="123" y="1152" type="curve" smooth="yes"/>
      <point x="116" y="1152"/>
      <point x="108" y="1133"/>
      <point x="108" y="1106" type="curve" smooth="yes"/>
      <point x="108" y="953" type="line" smooth="yes"/>
      <point x="108" y="907"/>
      <point x="117" y="865"/>
      <point x="132" y="845" type="curve" smooth="yes"/>
      <point x="307" y="683" type="line" smooth="yes"/>
      <point x="310" y="680"/>
      <point x="311" y="673"/>
      <point x="311" y="667" type="curve" smooth="yes"/>
      <point x="311" y="661"/>
      <point x="311" y="654"/>
      <point x="308" y="651" type="curve" smooth="yes"/>
      <point x="132" y="491" type="line" smooth="yes"/>
      <point x="118" y="472"/>
      <point x="108" y="430"/>
      <point x="108" y="385" type="curve" smooth="yes"/>
      <point x="108" y="247" type="line" smooth="yes"/>
      <point x="108" y="220"/>
      <point x="116" y="202"/>
    </contour>
    <contour>
      <point x="511" y="202" type="curve" smooth="yes"/>
      <point x="513" y="202"/>
      <point x="514" y="203"/>
      <point x="518" y="207" type="curve" smooth="yes"/>
      <point x="795" y="480" type="line" smooth="yes"/>
      <point x="814" y="498"/>
      <point x="818" y="545"/>
      <point x="818" y="590" type="curve" smooth="yes"/>
      <point x="818" y="749" type="line" smooth="yes"/>
      <point x="818" y="795"/>
      <point x="814" y="841"/>
      <point x="796" y="860" type="curve" smooth="yes"/>
      <point x="518" y="1145" type="line" smooth="yes"/>
      <point x="515" y="1149"/>
      <point x="512" y="1152"/>
      <point x="510" y="1152" type="curve" smooth="yes"/>
      <point x="503" y="1152"/>
      <point x="495" y="1133"/>
      <point x="495" y="1106" type="curve" smooth="yes"/>
      <point x="495" y="953" type="line" smooth="yes"/>
      <point x="495" y="907"/>
      <point x="504" y="865"/>
      <point x="519" y="845" type="curve" smooth="yes"/>
      <point x="695" y="683" type="line" smooth="yes"/>
      <point x="697" y="680"/>
      <point x="698" y="673"/>
      <point x="698" y="667" type="curve" smooth="yes"/>
      <point x="698" y="661"/>
      <point x="698" y="654"/>
      <point x="695" y="651" type="curve" smooth="yes"/>
      <point x="519" y="491" type="line" smooth="yes"/>
      <point x="505" y="472"/>
      <point x="495" y="430"/>
      <point x="495" y="385" type="curve" smooth="yes"/>
      <point x="495" y="247" type="line" smooth="yes"/>
      <point x="495" y="221"/>
      <point x="503" y="202"/>
    </contour>
  </outline>
</glyph>
<glyph name="multiply" format="1">
  <advance width="801"/>
  <unicode hex="00D7"/>
  <outline>
    <contour>
      <point x="193" y="319" type="line"/>
      <point x="205" y="307"/>
      <point x="218" y="298"/>
      <point x="248" y="328" type="curve" smooth="yes"/>
      <point x="400" y="480" type="line"/>
      <point x="552" y="328" type="line" smooth="yes"/>
      <point x="582" y="298"/>
      <point x="595" y="307"/>
      <point x="607" y="319" type="curve" smooth="yes"/>
      <point x="676" y="388" type="line" smooth="yes"/>
      <point x="688" y="400"/>
      <point x="696" y="412"/>
      <point x="666" y="442" type="curve" smooth="yes"/>
      <point x="514" y="594" type="line"/>
      <point x="666" y="746" type="line" smooth="yes"/>
      <point x="696" y="776"/>
      <point x="687" y="789"/>
      <point x="675" y="801" type="curve"/>
      <point x="606" y="870" type="line" smooth="yes"/>
      <point x="594" y="882"/>
      <point x="582" y="890"/>
      <point x="552" y="860" type="curve" smooth="yes"/>
      <point x="400" y="708" type="line"/>
      <point x="248" y="860" type="line" smooth="yes"/>
      <point x="218" y="890"/>
      <point x="206" y="882"/>
      <point x="194" y="870" type="curve" smooth="yes"/>
      <point x="125" y="801" type="line" smooth="yes"/>
      <point x="113" y="789"/>
      <point x="104" y="776"/>
      <point x="134" y="746" type="curve" smooth="yes"/>
      <point x="286" y="594" type="line"/>
      <point x="134" y="442" type="line" smooth="yes"/>
      <point x="104" y="412"/>
      <point x="112" y="400"/>
      <point x="124" y="388" type="curve" smooth="yes"/>
    </contour>
  </outline>
</glyph>
<glyph name="Thorn" format="1">
  <advance width="912"/>
  <unicode hex="00DE"/>
  <outline>
    <contour>
      <point x="148" y="0" type="curve" smooth="yes"/>
      <point x="347" y="0" type="line" smooth="yes"/>
      <point x="362" y="0"/>
      <point x="374" y="14"/>
      <point x="374" y="56" type="curve" smooth="yes"/>
      <point x="374" y="297" type="line" smooth="yes"/>
      <point x="374" y="317"/>
      <point x="380" y="319"/>
      <point x="386" y="319" type="curve" smooth="yes"/>
      <point x="513" y="319" type="line" smooth="yes"/>
      <point x="683" y="319"/>
      <point x="854" y="365"/>
      <point x="854" y="776" type="curve" smooth="yes"/>
      <point x="854" y="1213"/>
      <point x="668" y="1240"/>
      <point x="482" y="1240" type="curve" smooth="yes"/>
      <point x="374" y="1240" type="line"/>
      <point x="374" y="1400" type="line" smooth="yes"/>
      <point x="374" y="1443"/>
      <point x="362" y="1457"/>
      <point x="347" y="1457" type="curve" smooth="yes"/>
      <point x="148" y="1457" type="line" smooth="yes"/>
      <point x="133" y="1457"/>
      <point x="121" y="1443"/>
      <point x="121" y="1400" type="curve" smooth="yes"/>
      <point x="121" y="56" type="line" smooth="yes"/>
      <point x="121" y="14"/>
      <point x="133" y="0"/>
    </contour>
    <contour>
      <point x="386" y="524" type="line"/>
      <point x="380" y="524"/>
      <point x="374" y="527"/>
      <point x="374" y="547" type="curve" smooth="yes"/>
      <point x="374" y="1010" type="line" smooth="yes"/>
      <point x="374" y="1029"/>
      <point x="380" y="1036"/>
      <point x="386" y="1036" type="curve" smooth="yes"/>
      <point x="467" y="1036" type="line" smooth="yes"/>
      <point x="550" y="1036"/>
      <point x="601" y="1030"/>
      <point x="601" y="774" type="curve" smooth="yes"/>
      <point x="601" y="551"/>
      <point x="589" y="524"/>
      <point x="480" y="524" type="curve" smooth="yes"/>
    </contour>
  </outline>
</glyph>
<glyph name="ae" format="1">
  <advance width="1068"/>
  <unicode hex="00E6"/>
  <outline>
    <contour>
      <point x="286" y="-12" type="curve" smooth="yes"/>
      <point x="405" y="-12"/>
      <point x="499" y="72"/>
      <point x="551" y="220" type="curve"/>
      <point x="585" y="70"/>
      <point x="666" y="-10"/>
      <point x="767" y="-10" type="curve" smooth="yes"/>
      <point x="939" y="-10"/>
      <point x="996" y="95"/>
      <point x="996" y="235" type="curve" smooth="yes"/>
      <point x="996" y="265"/>
      <point x="992" y="287"/>
      <point x="990" y="297" type="curve" smooth="yes"/>
      <point x="988" y="307"/>
      <point x="982" y="313"/>
      <point x="967" y="313" type="curve" smooth="yes"/>
      <point x="884" y="313" type="line" smooth="yes"/>
      <point x="872" y="313"/>
      <point x="864" y="307"/>
      <point x="862" y="290" type="curve" smooth="yes"/>
      <point x="856" y="235"/>
      <point x="847" y="159"/>
      <point x="772" y="159" type="curve" smooth="yes"/>
      <point x="711" y="159"/>
      <point x="659" y="205"/>
      <point x="659" y="424" type="curve" smooth="yes"/>
      <point x="659" y="439"/>
      <point x="662" y="457"/>
      <point x="668" y="457" type="curve" smooth="yes"/>
      <point x="988" y="457" type="line" smooth="yes"/>
      <point x="1003" y="457"/>
      <point x="1003" y="505"/>
      <point x="1003" y="524" type="curve"/>
      <point x="1002" y="932"/>
      <point x="876" y="1018"/>
      <point x="753" y="1018" type="curve" smooth="yes"/>
      <point x="687" y="1018"/>
      <point x="613" y="971"/>
      <point x="576" y="873" type="curve"/>
      <point x="536" y="983"/>
      <point x="454" y="1017"/>
      <point x="376" y="1017" type="curve" smooth="yes"/>
      <point x="248" y="1017"/>
      <point x="141" y="945"/>
      <point x="110" y="816" type="curve" smooth="yes"/>
      <point x="103" y="788"/>
      <point x="106" y="749"/>
      <point x="117" y="747" type="curve" smooth="yes"/>
      <point x="117" y="746"/>
      <point x="253" y="709"/>
      <point x="256" y="709" type="curve" smooth="yes"/>
      <point x="263" y="708"/>
      <point x="270" y="713"/>
      <point x="276" y="733" type="curve" smooth="yes"/>
      <point x="293" y="806"/>
      <point x="323" y="848"/>
      <point x="375" y="848" type="curve" smooth="yes"/>
      <point x="443" y="848"/>
      <point x="457" y="788"/>
      <point x="457" y="667" type="curve" smooth="yes"/>
      <point x="457" y="618" type="line"/>
      <point x="454" y="575"/>
      <point x="81" y="643"/>
      <point x="81" y="238" type="curve" smooth="yes"/>
      <point x="81" y="64"/>
      <point x="163" y="-12"/>
    </contour>
    <contour>
      <point x="327" y="139" type="curve" smooth="yes"/>
      <point x="280" y="139"/>
      <point x="265" y="186"/>
      <point x="265" y="250" type="curve" smooth="yes"/>
      <point x="265" y="381"/>
      <point x="334" y="443"/>
      <point x="441" y="479" type="curve" smooth="yes"/>
      <point x="443" y="480"/>
      <point x="451" y="482"/>
      <point x="452" y="482" type="curve" smooth="yes"/>
      <point x="462" y="482"/>
      <point x="462" y="412"/>
      <point x="462" y="398" type="curve" smooth="yes"/>
      <point x="462" y="276"/>
      <point x="403" y="139"/>
    </contour>
    <contour>
      <point x="664" y="587" type="line"/>
      <point x="659" y="587"/>
      <point x="659" y="617"/>
      <point x="659" y="631" type="curve" smooth="yes"/>
      <point x="661" y="768"/>
      <point x="702" y="849"/>
      <point x="751" y="849" type="curve" smooth="yes"/>
      <point x="803" y="849"/>
      <point x="836" y="761"/>
      <point x="839" y="623" type="curve"/>
      <point x="839" y="610"/>
      <point x="839" y="587"/>
      <point x="835" y="587" type="curve"/>
    </contour>
    <contour>
      <point x="534" y="1006" type="move" name="top"/>
    </contour>
  </outline>
</glyph>
<glyph name="eth" format="1">
  <advance width="837"/>
  <unicode hex="00F0"/>
  <outline>
    <contour>
      <point x="415" y="-21" type="curve" smooth="yes"/>
      <point x="643" y="-21"/>
      <point x="753" y="99"/>
      <point x="753" y="623" type="curve" smooth="yes"/>
      <point x="753" y="923"/>
      <point x="682" y="1105"/>
      <point x="580" y="1216" type="curve"/>
      <point x="644" y="1274" type="line" smooth="yes"/>
      <point x="665" y="1294"/>
      <point x="675" y="1316"/>
      <point x="655" y="1337" type="curve" smooth="yes"/>
      <point x="630" y="1363" type="line" smooth="yes"/>
      <point x="614" y="1388"/>
      <point x="588" y="1400"/>
      <point x="568" y="1379" type="curve" smooth="yes"/>
      <point x="480" y="1295" type="line"/>
      <point x="378" y="1355"/>
      <point x="263" y="1368"/>
      <point x="164" y="1371" type="curve" smooth="yes"/>
      <point x="147" y="1371"/>
      <point x="136" y="1354"/>
      <point x="136" y="1311" type="curve" smooth="yes"/>
      <point x="135" y="1311"/>
      <point x="133" y="1264"/>
      <point x="133" y="1263" type="curve" smooth="yes"/>
      <point x="133" y="1233"/>
      <point x="150" y="1221"/>
      <point x="158" y="1221" type="curve" smooth="yes"/>
      <point x="230" y="1217"/>
      <point x="296" y="1204"/>
      <point x="359" y="1175" type="curve"/>
      <point x="305" y="1125" type="line" smooth="yes"/>
      <point x="284" y="1105"/>
      <point x="279" y="1088"/>
      <point x="295" y="1062" type="curve" smooth="yes"/>
      <point x="315" y="1042" type="line" smooth="yes"/>
      <point x="336" y="1021"/>
      <point x="352" y="1009"/>
      <point x="376" y="1025" type="curve" smooth="yes"/>
      <point x="462" y="1103" type="line"/>
      <point x="499" y="1046"/>
      <point x="534" y="977"/>
      <point x="536" y="876" type="curve"/>
      <point x="479" y="905"/>
      <point x="447" y="916"/>
      <point x="388" y="916" type="curve" smooth="yes"/>
      <point x="203" y="916"/>
      <point x="81" y="751"/>
      <point x="81" y="448" type="curve" smooth="yes"/>
      <point x="81" y="72"/>
      <point x="238" y="-21"/>
    </contour>
    <contour>
      <point x="422" y="141" type="curve" smooth="yes"/>
      <point x="332" y="141"/>
      <point x="290" y="237"/>
      <point x="290" y="467" type="curve" smooth="yes"/>
      <point x="290" y="644"/>
      <point x="326" y="755"/>
      <point x="425" y="755" type="curve" smooth="yes"/>
      <point x="497" y="755"/>
      <point x="551" y="626"/>
      <point x="551" y="480" type="curve" smooth="yes"/>
      <point x="551" y="226"/>
      <point x="508" y="141"/>
    </contour>
  </outline>
</glyph>
<glyph name="dcroat" format="1">
  <advance width="836"/>
  <unicode hex="0111"/>
  <outline>
    <contour>
      <point x="352" y="-10" type="curve" smooth="yes"/>
      <point x="442" y="-10"/>
      <point x="539" y="13"/>
      <point x="576" y="201" type="curve" smooth="yes"/>
      <point x="579" y="208"/>
      <point x="581" y="211"/>
      <point x="584" y="211" type="curve"/>
      <point x="587" y="211"/>
      <point x="590" y="206"/>
      <point x="591" y="197" type="curve" smooth="yes"/>
      <point x="591" y="195"/>
      <point x="621" y="66"/>
      <point x="621" y="64" type="curve" smooth="yes"/>
      <point x="629" y="26"/>
      <point x="644" y="1"/>
      <point x="661" y="0" type="curve" smooth="yes"/>
      <point x="661" y="0"/>
      <point x="702" y="0"/>
      <point x="702" y="0" type="curve" smooth="yes"/>
      <point x="717" y="0"/>
      <point x="729" y="24"/>
      <point x="729" y="67" type="curve" smooth="yes"/>
      <point x="729" y="1166" type="line"/>
      <point x="795" y="1166" type="line" smooth="yes"/>
      <point x="823" y="1166"/>
      <point x="835" y="1182"/>
      <point x="835" y="1210" type="curve" smooth="yes"/>
      <point x="835" y="1248" type="line" smooth="yes"/>
      <point x="835" y="1276"/>
      <point x="823" y="1293"/>
      <point x="795" y="1293" type="curve" smooth="yes"/>
      <point x="729" y="1293" type="line"/>
      <point x="729" y="1366" type="line" smooth="yes"/>
      <point x="729" y="1409"/>
      <point x="717" y="1424"/>
      <point x="702" y="1424" type="curve" smooth="yes"/>
      <point x="536" y="1424" type="line" smooth="yes"/>
      <point x="521" y="1424"/>
      <point x="510" y="1409"/>
      <point x="510" y="1366" type="curve" smooth="yes"/>
      <point x="510" y="1293" type="line"/>
      <point x="356" y="1293" type="line" smooth="yes"/>
      <point x="329" y="1293"/>
      <point x="317" y="1276"/>
      <point x="317" y="1248" type="curve" smooth="yes"/>
      <point x="317" y="1210" type="line" smooth="yes"/>
      <point x="317" y="1182"/>
      <point x="329" y="1166"/>
      <point x="356" y="1166" type="curve" smooth="yes"/>
      <point x="510" y="1166" type="line"/>
      <point x="510" y="907" type="line"/>
      <point x="510" y="898"/>
      <point x="507" y="893"/>
      <point x="504" y="893" type="curve"/>
      <point x="502" y="893"/>
      <point x="498" y="897"/>
      <point x="495" y="902" type="curve" smooth="yes"/>
      <point x="459" y="985"/>
      <point x="410" y="1017"/>
      <point x="340" y="1017" type="curve" smooth="yes"/>
      <point x="221" y="1017"/>
      <point x="80" y="917"/>
      <point x="80" y="498" type="curve" smooth="yes"/>
      <point x="80" y="81"/>
      <point x="225" y="-10"/>
    </contour>
    <contour>
      <point x="406" y="159" type="curve" smooth="yes"/>
      <point x="339" y="159"/>
      <point x="299" y="207"/>
      <point x="299" y="514" type="curve" smooth="yes"/>
      <point x="299" y="785"/>
      <point x="340" y="848"/>
      <point x="405" y="848" type="curve" smooth="yes"/>
      <point x="474" y="848"/>
      <point x="509" y="763"/>
      <point x="509" y="514" type="curve" smooth="yes"/>
      <point x="509" y="237"/>
      <point x="474" y="159"/>
    </contour>
  </outline>
</glyph>
<glyph name="Hbar" format="1">
  <advance width="992"/>
  <unicode hex="0126"/>
  <outline>
    <contour>
      <point x="148" y="0" type="curve" smooth="yes"/>
      <point x="350" y="0" type="line" smooth="yes"/>
      <point x="365" y="0"/>
      <point x="376" y="4"/>
      <point x="376" y="47" type="curve" smooth="yes"/>
      <point x="376" y="648" type="line"/>
      <point x="376" y="667"/>
      <point x="382" y="670"/>
      <point x="388" y="670" type="curve"/>
      <point x="604" y="670" type="line"/>
      <point x="611" y="670"/>
      <point x="617" y="667"/>
      <point x="617" y="648" type="curve"/>
      <point x="617" y="47" type="line" smooth="yes"/>
      <point x="617" y="4"/>
      <point x="629" y="0"/>
      <point x="644" y="0" type="curve" smooth="yes"/>
      <point x="845" y="0" type="line" smooth="yes"/>
      <point x="860" y="0"/>
      <point x="871" y="4"/>
      <point x="871" y="47" type="curve" smooth="yes"/>
      <point x="871" y="1166" type="line"/>
      <point x="931" y="1166" type="line" smooth="yes"/>
      <point x="959" y="1166"/>
      <point x="972" y="1182"/>
      <point x="972" y="1210" type="curve" smooth="yes"/>
      <point x="972" y="1248" type="line" smooth="yes"/>
      <point x="972" y="1276"/>
      <point x="959" y="1293"/>
      <point x="931" y="1293" type="curve" smooth="yes"/>
      <point x="871" y="1293" type="line"/>
      <point x="871" y="1391" type="line" smooth="yes"/>
      <point x="871" y="1434"/>
      <point x="860" y="1438"/>
      <point x="845" y="1438" type="curve" smooth="yes"/>
      <point x="644" y="1438" type="line" smooth="yes"/>
      <point x="629" y="1438"/>
      <point x="618" y="1434"/>
      <point x="618" y="1391" type="curve" smooth="yes"/>
      <point x="618" y="1293" type="line"/>
      <point x="374" y="1293" type="line"/>
      <point x="374" y="1391" type="line" smooth="yes"/>
      <point x="374" y="1434"/>
      <point x="363" y="1438"/>
      <point x="348" y="1438" type="curve" smooth="yes"/>
      <point x="148" y="1438" type="line" smooth="yes"/>
      <point x="133" y="1438"/>
      <point x="121" y="1434"/>
      <point x="121" y="1391" type="curve" smooth="yes"/>
      <point x="121" y="1293" type="line"/>
      <point x="60" y="1293" type="line" smooth="yes"/>
      <point x="32" y="1293"/>
      <point x="20" y="1276"/>
      <point x="20" y="1248" type="curve" smooth="yes"/>
      <point x="20" y="1210" type="line" smooth="yes"/>
      <point x="20" y="1182"/>
      <point x="32" y="1166"/>
      <point x="60" y="1166" type="curve" smooth="yes"/>
      <point x="121" y="1166" type="line"/>
      <point x="121" y="47" type="line" smooth="yes"/>
      <point x="121" y="4"/>
      <point x="133" y="0"/>
    </contour>
    <contour>
      <point x="386" y="869" type="line"/>
      <point x="380" y="869"/>
      <point x="374" y="876"/>
      <point x="374" y="895" type="curve"/>
      <point x="374" y="1166" type="line"/>
      <point x="618" y="1166" type="line"/>
      <point x="618" y="895" type="line"/>
      <point x="618" y="876"/>
      <point x="612" y="869"/>
      <point x="605" y="869" type="curve"/>
    </contour>
  </outline>
</glyph>
<glyph name="hbar" format="1">
  <advance width="853"/>
  <unicode hex="0127"/>
  <outline>
    <contour>
      <point x="135" y="0" type="curve" smooth="yes"/>
      <point x="307" y="0" type="line" smooth="yes"/>
      <point x="321" y="0"/>
      <point x="333" y="4"/>
      <point x="333" y="47" type="curve" smooth="yes"/>
      <point x="333" y="576" type="line" smooth="yes"/>
      <point x="333" y="758"/>
      <point x="377" y="847"/>
      <point x="446" y="847" type="curve" smooth="yes"/>
      <point x="511" y="847"/>
      <point x="535" y="770"/>
      <point x="535" y="577" type="curve" smooth="yes"/>
      <point x="535" y="47" type="line" smooth="yes"/>
      <point x="535" y="4"/>
      <point x="546" y="0"/>
      <point x="561" y="0" type="curve" smooth="yes"/>
      <point x="733" y="0" type="line" smooth="yes"/>
      <point x="748" y="0"/>
      <point x="759" y="4"/>
      <point x="759" y="47" type="curve" smooth="yes"/>
      <point x="759" y="563" type="line" smooth="yes"/>
      <point x="759" y="914"/>
      <point x="658" y="1017"/>
      <point x="536" y="1017" type="curve" smooth="yes"/>
      <point x="476" y="1017"/>
      <point x="391" y="984"/>
      <point x="346" y="892" type="curve" smooth="yes"/>
      <point x="344" y="888"/>
      <point x="341" y="885"/>
      <point x="339" y="885" type="curve" smooth="yes"/>
      <point x="336" y="885"/>
      <point x="333" y="890"/>
      <point x="333" y="905" type="curve" smooth="yes"/>
      <point x="333" y="1166" type="line"/>
      <point x="481" y="1166" type="line" smooth="yes"/>
      <point x="509" y="1166"/>
      <point x="522" y="1182"/>
      <point x="522" y="1210" type="curve" smooth="yes"/>
      <point x="522" y="1248" type="line" smooth="yes"/>
      <point x="522" y="1276"/>
      <point x="509" y="1293"/>
      <point x="481" y="1293" type="curve" smooth="yes"/>
      <point x="333" y="1293" type="line"/>
      <point x="333" y="1385" type="line" smooth="yes"/>
      <point x="333" y="1428"/>
      <point x="321" y="1436"/>
      <point x="307" y="1436" type="curve" smooth="yes"/>
      <point x="135" y="1436" type="line" smooth="yes"/>
      <point x="120" y="1436"/>
      <point x="108" y="1428"/>
      <point x="108" y="1385" type="curve" smooth="yes"/>
      <point x="108" y="1293" type="line"/>
      <point x="41" y="1293" type="line" smooth="yes"/>
      <point x="14" y="1293"/>
      <point x="1" y="1276"/>
      <point x="1" y="1248" type="curve" smooth="yes"/>
      <point x="1" y="1210" type="line" smooth="yes"/>
      <point x="1" y="1182"/>
      <point x="14" y="1166"/>
      <point x="41" y="1166" type="curve" smooth="yes"/>
      <point x="108" y="1166" type="line"/>
      <point x="108" y="47" type="line" smooth="yes"/>
      <point x="108" y="4"/>
      <point x="120" y="0"/>
    </contour>
  </outline>
</glyph>
<glyph name="kgreenlandic" format="1">
  <advance width="740"/>
  <unicode hex="0138"/>
  <outline>
    <contour>
      <point x="135" y="0" type="curve" smooth="yes"/>
      <point x="284" y="0" type="line" smooth="yes"/>
      <point x="298" y="0"/>
      <point x="310" y="15"/>
      <point x="310" y="58" type="curve" smooth="yes"/>
      <point x="310" y="279" type="line" smooth="yes"/>
      <point x="310" y="301"/>
      <point x="313" y="323"/>
      <point x="319" y="338" type="curve"/>
      <point x="319" y="338"/>
      <point x="349" y="418"/>
      <point x="351" y="420" type="curve" smooth="yes"/>
      <point x="352" y="426"/>
      <point x="356" y="429"/>
      <point x="358" y="429" type="curve" smooth="yes"/>
      <point x="362" y="429"/>
      <point x="364" y="425"/>
      <point x="367" y="417" type="curve" smooth="yes"/>
      <point x="476" y="39" type="line"/>
      <point x="488" y="3"/>
      <point x="496" y="0"/>
      <point x="511" y="0" type="curve" smooth="yes"/>
      <point x="698" y="0" type="line" smooth="yes"/>
      <point x="704" y="0"/>
      <point x="709" y="16"/>
      <point x="709" y="32" type="curve" smooth="yes"/>
      <point x="709" y="40"/>
      <point x="707" y="48"/>
      <point x="705" y="55" type="curve" smooth="yes"/>
      <point x="525" y="541" type="line" smooth="yes"/>
      <point x="523" y="547"/>
      <point x="522" y="555"/>
      <point x="522" y="563" type="curve" smooth="yes"/>
      <point x="522" y="572"/>
      <point x="523" y="582"/>
      <point x="526" y="588" type="curve" smooth="yes"/>
      <point x="688" y="960" type="line" smooth="yes"/>
      <point x="691" y="966"/>
      <point x="693" y="973"/>
      <point x="693" y="981" type="curve" smooth="yes"/>
      <point x="693" y="994"/>
      <point x="689" y="1006"/>
      <point x="684" y="1006" type="curve" smooth="yes"/>
      <point x="498" y="1006" type="line" smooth="yes"/>
      <point x="481" y="1006"/>
      <point x="465" y="988"/>
      <point x="453" y="959" type="curve" smooth="yes"/>
      <point x="320" y="648" type="line" smooth="yes"/>
      <point x="319" y="646"/>
      <point x="317" y="644"/>
      <point x="317" y="644" type="curve"/>
      <point x="313" y="644"/>
      <point x="310" y="652"/>
      <point x="310" y="663" type="curve" smooth="yes"/>
      <point x="310" y="949" type="line" smooth="yes"/>
      <point x="310" y="992"/>
      <point x="298" y="1006"/>
      <point x="284" y="1006" type="curve" smooth="yes"/>
      <point x="135" y="1006" type="line" smooth="yes"/>
      <point x="120" y="1006"/>
      <point x="108" y="992"/>
      <point x="108" y="949" type="curve" smooth="yes"/>
      <point x="108" y="58" type="line" smooth="yes"/>
      <point x="108" y="15"/>
      <point x="120" y="0"/>
    </contour>
  </outline>
</glyph>
<glyph name="lslash" format="1">
  <advance width="402"/>
  <unicode hex="0142"/>
  <outline>
    <contour>
      <point x="286" y="0" type="line"/>
      <point x="300" y="0"/>
      <point x="311" y="5"/>
      <point x="311" y="48" type="curve" smooth="yes"/>
      <point x="311" y="763" type="line"/>
      <point x="414" y="791" type="line" smooth="yes"/>
      <point x="428" y="795"/>
      <point x="441" y="794"/>
      <point x="441" y="837" type="curve" smooth="yes"/>
      <point x="441" y="920" type="line" smooth="yes"/>
      <point x="441" y="963"/>
      <point x="428" y="970"/>
      <point x="414" y="966" type="curve" smooth="yes"/>
      <point x="311" y="939" type="line"/>
      <point x="311" y="1416" type="line" smooth="yes"/>
      <point x="311" y="1459"/>
      <point x="300" y="1473"/>
      <point x="286" y="1473" type="curve" smooth="yes"/>
      <point x="137" y="1473" type="line" smooth="yes"/>
      <point x="122" y="1473"/>
      <point x="110" y="1459"/>
      <point x="110" y="1416" type="curve" smooth="yes"/>
      <point x="110" y="885" type="line"/>
      <point x="7" y="858" type="line" smooth="yes"/>
      <point x="-7" y="854"/>
      <point x="-20" y="854"/>
      <point x="-20" y="811" type="curve" smooth="yes"/>
      <point x="-20" y="729" type="line" smooth="yes"/>
      <point x="-20" y="686"/>
      <point x="-7" y="678"/>
      <point x="7" y="682" type="curve" smooth="yes"/>
      <point x="110" y="709" type="line"/>
      <point x="110" y="48" type="line" smooth="yes"/>
      <point x="110" y="5"/>
      <point x="122" y="0"/>
      <point x="137" y="0" type="curve" smooth="yes"/>
    </contour>
  </outline>
</glyph>
<glyph name="florin" format="1">
  <advance width="579"/>
  <unicode hex="0192"/>
  <outline>
    <contour>
      <point x="61" y="-161" type="curve" smooth="yes"/>
      <point x="187" y="-161"/>
      <point x="321" y="-44"/>
      <point x="340" y="239" type="curve" smooth="yes"/>
      <point x="377" y="775" type="line" smooth="yes"/>
      <point x="378" y="795"/>
      <point x="383" y="812"/>
      <point x="389" y="812" type="curve" smooth="yes"/>
      <point x="485" y="812" type="line" smooth="yes"/>
      <point x="500" y="812"/>
      <point x="509" y="820"/>
      <point x="514" y="862" type="curve" smooth="yes"/>
      <point x="522" y="944" type="line" smooth="yes"/>
      <point x="526" y="983"/>
      <point x="521" y="998"/>
      <point x="505" y="998" type="curve" smooth="yes"/>
      <point x="394" y="998" type="line" smooth="yes"/>
      <point x="394" y="998"/>
      <point x="393" y="1001"/>
      <point x="393" y="1004" type="curve" smooth="yes"/>
      <point x="405" y="1123" type="line"/>
      <point x="418" y="1255"/>
      <point x="458" y="1301"/>
      <point x="513" y="1301" type="curve" smooth="yes"/>
      <point x="544" y="1301" type="line" smooth="yes"/>
      <point x="556" y="1301"/>
      <point x="559" y="1316"/>
      <point x="562" y="1352" type="curve" smooth="yes"/>
      <point x="562" y="1353"/>
      <point x="568" y="1430"/>
      <point x="567" y="1430" type="curve" smooth="yes"/>
      <point x="568" y="1445"/>
      <point x="532" y="1465"/>
      <point x="467" y="1465" type="curve" smooth="yes"/>
      <point x="341" y="1465"/>
      <point x="222" y="1391"/>
      <point x="193" y="1065" type="curve" smooth="yes"/>
      <point x="191" y="1043"/>
      <point x="190" y="998"/>
      <point x="183" y="998" type="curve" smooth="yes"/>
      <point x="111" y="998" type="line" smooth="yes"/>
      <point x="96" y="998"/>
      <point x="87" y="980"/>
      <point x="82" y="939" type="curve" smooth="yes"/>
      <point x="74" y="862" type="line" smooth="yes"/>
      <point x="69" y="820"/>
      <point x="76" y="812"/>
      <point x="91" y="812" type="curve" smooth="yes"/>
      <point x="164" y="812" type="line" smooth="yes"/>
      <point x="171" y="812"/>
      <point x="168" y="795"/>
      <point x="167" y="775" type="curve" smooth="yes"/>
      <point x="123" y="178" type="line" smooth="yes"/>
      <point x="113" y="36"/>
      <point x="70" y="0"/>
      <point x="15" y="0" type="curve" smooth="yes"/>
      <point x="-6" y="0" type="line" smooth="yes"/>
      <point x="-18" y="0"/>
      <point x="-20" y="-15"/>
      <point x="-24" y="-51" type="curve" smooth="yes"/>
      <point x="-24" y="-52"/>
      <point x="-30" y="-120"/>
      <point x="-30" y="-120" type="curve" smooth="yes"/>
      <point x="-30" y="-169"/>
      <point x="-2" y="-161"/>
    </contour>
  </outline>
</glyph>
<glyph name="circumflex" format="1">
  <advance width="325"/>
  <unicode hex="02C6"/>
  <outline>
    <contour>
      <point x="62" y="1218" type="curve" smooth="yes"/>
      <point x="79" y="1218"/>
      <point x="92" y="1240"/>
      <point x="107" y="1274" type="curve" smooth="yes"/>
      <point x="148" y="1399" type="line" smooth="yes"/>
      <point x="152" y="1411"/>
      <point x="156" y="1418"/>
      <point x="159" y="1418" type="curve" smooth="yes"/>
      <point x="163" y="1418"/>
      <point x="167" y="1411"/>
      <point x="171" y="1399" type="curve" smooth="yes"/>
      <point x="213" y="1274" type="line" smooth="yes"/>
      <point x="227" y="1240"/>
      <point x="241" y="1218"/>
      <point x="259" y="1218" type="curve" smooth="yes"/>
      <point x="260" y="1218"/>
      <point x="288" y="1219"/>
      <point x="288" y="1219" type="curve" smooth="yes"/>
      <point x="318" y="1219"/>
      <point x="310" y="1265"/>
      <point x="304" y="1296" type="curve" smooth="yes"/>
      <point x="226" y="1521" type="line" smooth="yes"/>
      <point x="212" y="1571"/>
      <point x="193" y="1600"/>
      <point x="175" y="1600" type="curve" smooth="yes"/>
      <point x="145" y="1600" type="line" smooth="yes"/>
      <point x="127" y="1600"/>
      <point x="109" y="1571"/>
      <point x="94" y="1521" type="curve" smooth="yes"/>
      <point x="16" y="1296" type="line" smooth="yes"/>
      <point x="8" y="1267"/>
      <point x="4" y="1219"/>
      <point x="33" y="1219" type="curve" smooth="yes"/>
      <point x="33" y="1219"/>
      <point x="61" y="1218"/>
    </contour>
    <contour>
      <point x="160" y="1006" type="move" name="_top"/>
    </contour>
  </outline>
</glyph>
<glyph name="caron" format="1">
  <advance width="325"/>
  <unicode hex="02C7"/>
  <outline>
    <contour>
      <point x="145" y="1218" type="curve" smooth="yes"/>
      <point x="175" y="1218" type="line" smooth="yes"/>
      <point x="192" y="1218"/>
      <point x="211" y="1248"/>
      <point x="225" y="1298" type="curve" smooth="yes"/>
      <point x="304" y="1523" type="line" smooth="yes"/>
      <point x="311" y="1552"/>
      <point x="315" y="1599"/>
      <point x="287" y="1599" type="curve" smooth="yes"/>
      <point x="287" y="1600"/>
      <point x="258" y="1600"/>
      <point x="258" y="1600" type="curve" smooth="yes"/>
      <point x="241" y="1600"/>
      <point x="227" y="1579"/>
      <point x="213" y="1545" type="curve" smooth="yes"/>
      <point x="171" y="1420" type="line" smooth="yes"/>
      <point x="167" y="1407"/>
      <point x="163" y="1401"/>
      <point x="160" y="1401" type="curve" smooth="yes"/>
      <point x="156" y="1401"/>
      <point x="152" y="1407"/>
      <point x="148" y="1420" type="curve" smooth="yes"/>
      <point x="107" y="1545" type="line" smooth="yes"/>
      <point x="92" y="1579"/>
      <point x="79" y="1600"/>
      <point x="60" y="1600" type="curve" smooth="yes"/>
      <point x="59" y="1600"/>
      <point x="32" y="1600"/>
      <point x="32" y="1599" type="curve" smooth="yes"/>
      <point x="1" y="1599"/>
      <point x="9" y="1553"/>
      <point x="16" y="1523" type="curve" smooth="yes"/>
      <point x="94" y="1298" type="line" smooth="yes"/>
      <point x="108" y="1248"/>
      <point x="127" y="1218"/>
    </contour>
    <contour>
      <point x="160" y="1006" type="move" name="_top"/>
    </contour>
  </outline>
</glyph>
<glyph name="breve" format="1">
  <advance width="1655"/>
  <unicode hex="02D8"/>
  <outline>
    <contour>
      <point x="625" y="1292" type="curve" smooth="yes"/>
      <point x="727" y="1292"/>
      <point x="829" y="1350"/>
      <point x="831" y="1500" type="curve"/>
      <point x="735" y="1500" type="line"/>
      <point x="735" y="1421"/>
      <point x="682" y="1398"/>
      <point x="628" y="1398" type="curve" smooth="yes"/>
      <point x="574" y="1398"/>
      <point x="520" y="1421"/>
      <point x="520" y="1500" type="curve"/>
      <point x="421" y="1500" type="line"/>
      <point x="422" y="1350"/>
      <point x="524" y="1292"/>
    </contour>
    <contour>
      <point x="626" y="1006" type="move" name="_top"/>
    </contour>
  </outline>
</glyph>
<glyph name="ring" format="1">
  <advance width="1577"/>
  <unicode hex="02DA"/>
  <outline>
    <contour>
      <point x="818" y="1630" type="curve" smooth="yes"/>
      <point x="745" y="1630"/>
      <point x="684" y="1672"/>
      <point x="685" y="1757" type="curve" smooth="yes"/>
      <point x="684" y="1850"/>
      <point x="749" y="1885"/>
      <point x="818" y="1885" type="curve" smooth="yes"/>
      <point x="883" y="1885"/>
      <point x="949" y="1850"/>
      <point x="949" y="1757" type="curve" smooth="yes"/>
      <point x="949" y="1671"/>
      <point x="887" y="1630"/>
    </contour>
    <contour>
      <point x="818" y="1539" type="curve" smooth="yes"/>
      <point x="918" y="1539"/>
      <point x="1055" y="1597"/>
      <point x="1055" y="1757" type="curve" smooth="yes"/>
      <point x="1055" y="1922"/>
      <point x="929" y="1976"/>
      <point x="818" y="1976" type="curve" smooth="yes"/>
      <point x="705" y="1976"/>
      <point x="578" y="1922"/>
      <point x="578" y="1757" type="curve" smooth="yes"/>
      <point x="578" y="1596"/>
      <point x="715" y="1539"/>
    </contour>
    <contour>
      <point x="817" y="1006" type="move" name="_top"/>
    </contour>
  </outline>
</glyph>
<glyph name="uni0311" format="1">
  <advance width="1655"/>
  <unicode hex="0311"/>
  <outline>
    <contour>
      <point x="426" y="1296" type="curve"/>
      <point x="521" y="1296" type="line"/>
      <point x="521" y="1375"/>
      <point x="574" y="1398"/>
      <point x="628" y="1398" type="curve" smooth="yes"/>
      <point x="682" y="1398"/>
      <point x="736" y="1374"/>
      <point x="736" y="1296" type="curve"/>
      <point x="835" y="1296" type="line"/>
      <point x="834" y="1446"/>
      <point x="733" y="1505"/>
      <point x="631" y="1505" type="curve" smooth="yes"/>
      <point x="529" y="1505"/>
      <point x="427" y="1446"/>
    </contour>
  </outline>
</glyph>
<glyph name="quoteleft" format="1">
  <advance width="362"/>
  <unicode hex="2018"/>
  <outline>
    <contour>
      <point x="114" y="833" type="curve" smooth="yes"/>
      <point x="258" y="833" type="line" smooth="yes"/>
      <point x="273" y="833"/>
      <point x="279" y="847"/>
      <point x="279" y="890" type="curve" smooth="yes"/>
      <point x="279" y="1077" type="line" smooth="yes"/>
      <point x="279" y="1115"/>
      <point x="272" y="1137"/>
      <point x="258" y="1137" type="curve" smooth="yes"/>
      <point x="208" y="1137" type="line" smooth="yes"/>
      <point x="203" y="1137"/>
      <point x="202" y="1148"/>
      <point x="202" y="1164" type="curve" smooth="yes"/>
      <point x="202" y="1226"/>
      <point x="221" y="1301"/>
      <point x="255" y="1336" type="curve" smooth="yes"/>
      <point x="277" y="1359"/>
      <point x="279" y="1357"/>
      <point x="279" y="1411" type="curve" smooth="yes"/>
      <point x="279" y="1432" type="line" smooth="yes"/>
      <point x="279" y="1468"/>
      <point x="265" y="1483"/>
      <point x="253" y="1477" type="curve" smooth="yes"/>
      <point x="205" y="1454"/>
      <point x="88" y="1345"/>
      <point x="88" y="1108" type="curve" smooth="yes"/>
      <point x="88" y="891" type="line" smooth="yes"/>
      <point x="88" y="848"/>
      <point x="100" y="833"/>
    </contour>
  </outline>
</glyph>
<glyph name="quotedblleft" format="1">
  <advance width="665"/>
  <unicode hex="201C"/>
  <outline>
    <contour>
      <point x="114" y="833" type="curve" smooth="yes"/>
      <point x="258" y="833" type="line" smooth="yes"/>
      <point x="273" y="833"/>
      <point x="279" y="847"/>
      <point x="279" y="890" type="curve" smooth="yes"/>
      <point x="279" y="1077" type="line" smooth="yes"/>
      <point x="279" y="1115"/>
      <point x="272" y="1137"/>
      <point x="258" y="1137" type="curve" smooth="yes"/>
      <point x="208" y="1137" type="line" smooth="yes"/>
      <point x="203" y="1137"/>
      <point x="202" y="1148"/>
      <point x="202" y="1164" type="curve" smooth="yes"/>
      <point x="202" y="1226"/>
      <point x="221" y="1301"/>
      <point x="255" y="1336" type="curve" smooth="yes"/>
      <point x="277" y="1359"/>
      <point x="279" y="1357"/>
      <point x="279" y="1411" type="curve" smooth="yes"/>
      <point x="279" y="1432" type="line" smooth="yes"/>
      <point x="279" y="1468"/>
      <point x="265" y="1483"/>
      <point x="253" y="1477" type="curve" smooth="yes"/>
      <point x="205" y="1454"/>
      <point x="88" y="1345"/>
      <point x="88" y="1108" type="curve" smooth="yes"/>
      <point x="88" y="891" type="line" smooth="yes"/>
      <point x="88" y="848"/>
      <point x="100" y="833"/>
    </contour>
    <contour>
      <point x="402" y="833" type="curve" smooth="yes"/>
      <point x="546" y="833" type="line" smooth="yes"/>
      <point x="561" y="833"/>
      <point x="567" y="847"/>
      <point x="567" y="890" type="curve" smooth="yes"/>
      <point x="567" y="1077" type="line" smooth="yes"/>
      <point x="567" y="1115"/>
      <point x="560" y="1137"/>
      <point x="546" y="1137" type="curve" smooth="yes"/>
      <point x="496" y="1137" type="line" smooth="yes"/>
      <point x="491" y="1137"/>
      <point x="490" y="1148"/>
      <point x="490" y="1164" type="curve" smooth="yes"/>
      <point x="490" y="1226"/>
      <point x="509" y="1301"/>
      <point x="543" y="1336" type="curve" smooth="yes"/>
      <point x="565" y="1359"/>
      <point x="567" y="1357"/>
      <point x="567" y="1411" type="curve" smooth="yes"/>
      <point x="567" y="1432" type="line" smooth="yes"/>
      <point x="567" y="1468"/>
      <point x="553" y="1483"/>
      <point x="541" y="1477" type="curve" smooth="yes"/>
      <point x="493" y="1454"/>
      <point x="376" y="1345"/>
      <point x="376" y="1108" type="curve" smooth="yes"/>
      <point x="376" y="891" type="line" smooth="yes"/>
      <point x="376" y="848"/>
      <point x="388" y="833"/>
    </contour>
  </outline>
</glyph>
<glyph name="quotedblright" format="1">
  <advance width="659"/>
  <unicode hex="201D"/>
  <outline>
    <contour>
      <point x="114" y="820" type="curve" smooth="yes"/>
      <point x="162" y="843"/>
      <point x="279" y="952"/>
      <point x="279" y="1189" type="curve" smooth="yes"/>
      <point x="279" y="1406" type="line" smooth="yes"/>
      <point x="279" y="1449"/>
      <point x="267" y="1464"/>
      <point x="253" y="1464" type="curve" smooth="yes"/>
      <point x="109" y="1464" type="line" smooth="yes"/>
      <point x="94" y="1464"/>
      <point x="88" y="1449"/>
      <point x="88" y="1406" type="curve" smooth="yes"/>
      <point x="88" y="1220" type="line" smooth="yes"/>
      <point x="88" y="1182"/>
      <point x="95" y="1160"/>
      <point x="109" y="1160" type="curve" smooth="yes"/>
      <point x="159" y="1160" type="line" smooth="yes"/>
      <point x="164" y="1160"/>
      <point x="165" y="1149"/>
      <point x="165" y="1133" type="curve" smooth="yes"/>
      <point x="165" y="1071"/>
      <point x="146" y="996"/>
      <point x="112" y="961" type="curve" smooth="yes"/>
      <point x="90" y="938"/>
      <point x="88" y="940"/>
      <point x="88" y="886" type="curve" smooth="yes"/>
      <point x="88" y="865" type="line" smooth="yes"/>
      <point x="88" y="829"/>
      <point x="102" y="814"/>
    </contour>
    <contour>
      <point x="407" y="820" type="curve" smooth="yes"/>
      <point x="455" y="843"/>
      <point x="573" y="952"/>
      <point x="573" y="1189" type="curve" smooth="yes"/>
      <point x="573" y="1406" type="line" smooth="yes"/>
      <point x="573" y="1449"/>
      <point x="561" y="1464"/>
      <point x="547" y="1464" type="curve" smooth="yes"/>
      <point x="403" y="1464" type="line" smooth="yes"/>
      <point x="388" y="1464"/>
      <point x="382" y="1449"/>
      <point x="382" y="1406" type="curve" smooth="yes"/>
      <point x="382" y="1220" type="line" smooth="yes"/>
      <point x="382" y="1182"/>
      <point x="389" y="1160"/>
      <point x="403" y="1160" type="curve" smooth="yes"/>
      <point x="453" y="1160" type="line" smooth="yes"/>
      <point x="458" y="1160"/>
      <point x="459" y="1149"/>
      <point x="459" y="1133" type="curve" smooth="yes"/>
      <point x="459" y="1071"/>
      <point x="440" y="996"/>
      <point x="406" y="961" type="curve" smooth="yes"/>
      <point x="384" y="938"/>
      <point x="382" y="940"/>
      <point x="382" y="886" type="curve" smooth="yes"/>
      <point x="382" y="865" type="line" smooth="yes"/>
      <point x="382" y="829"/>
      <point x="395" y="814"/>
    </contour>
  </outline>
</glyph>
<glyph name="dagger" format="1">
  <advance width="425"/>
  <unicode hex="2020"/>
  <outline>
    <contour>
      <point x="148" y="0" type="curve" smooth="yes"/>
      <point x="297" y="0" type="line" smooth="yes"/>
      <point x="311" y="0"/>
      <point x="323" y="5"/>
      <point x="323" y="48" type="curve" smooth="yes"/>
      <point x="323" y="857" type="line"/>
      <point x="570" y="857" type="line" smooth="yes"/>
      <point x="613" y="857"/>
      <point x="628" y="869"/>
      <point x="628" y="883" type="curve" smooth="yes"/>
      <point x="628" y="1031" type="line" smooth="yes"/>
      <point x="628" y="1046"/>
      <point x="613" y="1058"/>
      <point x="570" y="1058" type="curve" smooth="yes"/>
      <point x="323" y="1058" type="line"/>
      <point x="323" y="1416" type="line" smooth="yes"/>
      <point x="323" y="1459"/>
      <point x="311" y="1473"/>
      <point x="297" y="1473" type="curve" smooth="yes"/>
      <point x="148" y="1473" type="line" smooth="yes"/>
      <point x="133" y="1473"/>
      <point x="121" y="1459"/>
      <point x="121" y="1416" type="curve" smooth="yes"/>
      <point x="121" y="1058" type="line"/>
      <point x="-155" y="1058" type="line" smooth="yes"/>
      <point x="-198" y="1058"/>
      <point x="-203" y="1046"/>
      <point x="-203" y="1031" type="curve" smooth="yes"/>
      <point x="-203" y="883" type="line" smooth="yes"/>
      <point x="-203" y="869"/>
      <point x="-198" y="857"/>
      <point x="-155" y="857" type="curve" smooth="yes"/>
      <point x="121" y="857" type="line"/>
      <point x="121" y="48" type="line" smooth="yes"/>
      <point x="121" y="5"/>
      <point x="133" y="0"/>
    </contour>
  </outline>
</glyph>
<glyph name="daggerdbl" format="1">
  <advance width="425"/>
  <unicode hex="2021"/>
  <outline>
    <contour>
      <point x="148" y="0" type="curve" smooth="yes"/>
      <point x="297" y="0" type="line" smooth="yes"/>
      <point x="311" y="0"/>
      <point x="323" y="5"/>
      <point x="323" y="48" type="curve" smooth="yes"/>
      <point x="323" y="335" type="line"/>
      <point x="570" y="335" type="line" smooth="yes"/>
      <point x="613" y="335"/>
      <point x="628" y="347"/>
      <point x="628" y="361" type="curve" smooth="yes"/>
      <point x="628" y="509" type="line" smooth="yes"/>
      <point x="628" y="524"/>
      <point x="613" y="537"/>
      <point x="570" y="537" type="curve" smooth="yes"/>
      <point x="323" y="537" type="line"/>
      <point x="323" y="910" type="line"/>
      <point x="570" y="910" type="line" smooth="yes"/>
      <point x="613" y="910"/>
      <point x="628" y="922"/>
      <point x="628" y="936" type="curve" smooth="yes"/>
      <point x="628" y="1084" type="line" smooth="yes"/>
      <point x="628" y="1099"/>
      <point x="613" y="1112"/>
      <point x="570" y="1112" type="curve" smooth="yes"/>
      <point x="323" y="1112" type="line"/>
      <point x="323" y="1416" type="line" smooth="yes"/>
      <point x="323" y="1459"/>
      <point x="311" y="1473"/>
      <point x="297" y="1473" type="curve" smooth="yes"/>
      <point x="148" y="1473" type="line" smooth="yes"/>
      <point x="133" y="1473"/>
      <point x="121" y="1459"/>
      <point x="121" y="1416" type="curve" smooth="yes"/>
      <point x="121" y="1112" type="line"/>
      <point x="-155" y="1112" type="line" smooth="yes"/>
      <point x="-198" y="1112"/>
      <point x="-203" y="1099"/>
      <point x="-203" y="1084" type="curve" smooth="yes"/>
      <point x="-203" y="936" type="line" smooth="yes"/>
      <point x="-203" y="922"/>
      <point x="-198" y="910"/>
      <point x="-155" y="910" type="curve" smooth="yes"/>
      <point x="121" y="910" type="line"/>
      <point x="121" y="537" type="line"/>
      <point x="-155" y="537" type="line" smooth="yes"/>
      <point x="-198" y="537"/>
      <point x="-203" y="524"/>
      <point x="-203" y="509" type="curve" smooth="yes"/>
      <point x="-203" y="361" type="line" smooth="yes"/>
      <point x="-203" y="347"/>
      <point x="-198" y="335"/>
      <point x="-155" y="335" type="curve" smooth="yes"/>
      <point x="121" y="335" type="line"/>
      <point x="121" y="48" type="line" smooth="yes"/>
      <point x="121" y="5"/>
      <point x="133" y="0"/>
    </contour>
  </outline>
</glyph>
<glyph name="bullet" format="1">
  <advance width="1307"/>
  <unicode hex="2022"/>
  <outline>
    <contour>
      <point x="653" y="558" type="curve" smooth="yes"/>
      <point x="930" y="558"/>
      <point x="1034" y="761"/>
      <point x="1034" y="937" type="curve" smooth="yes"/>
      <point x="1034" y="1123"/>
      <point x="930" y="1321"/>
      <point x="653" y="1321" type="curve" smooth="yes"/>
      <point x="376" y="1321"/>
      <point x="272" y="1123"/>
      <point x="272" y="937" type="curve" smooth="yes"/>
      <point x="272" y="761"/>
      <point x="376" y="558"/>
    </contour>
  </outline>
</glyph>
<glyph name="guilsinglleft" format="1">
  <advance width="569"/>
  <unicode hex="2039"/>
  <outline>
    <contour>
      <point x="409" y="208" type="curve" smooth="yes"/>
      <point x="412" y="204"/>
      <point x="415" y="202"/>
      <point x="417" y="204" type="curve" smooth="yes"/>
      <point x="423" y="204"/>
      <point x="431" y="223"/>
      <point x="431" y="249" type="curve" smooth="yes"/>
      <point x="431" y="251"/>
      <point x="431" y="403"/>
      <point x="430" y="404" type="curve" smooth="yes"/>
      <point x="430" y="447"/>
      <point x="409" y="501"/>
      <point x="395" y="520" type="curve" smooth="yes"/>
      <point x="395" y="520"/>
      <point x="232" y="670"/>
      <point x="232" y="671" type="curve" smooth="yes"/>
      <point x="229" y="673"/>
      <point x="228" y="681"/>
      <point x="228" y="686" type="curve" smooth="yes"/>
      <point x="228" y="692"/>
      <point x="240" y="712"/>
      <point x="243" y="714" type="curve" smooth="yes"/>
      <point x="244" y="715"/>
      <point x="408" y="864"/>
      <point x="408" y="866" type="curve" smooth="yes"/>
      <point x="422" y="884"/>
      <point x="431" y="926"/>
      <point x="431" y="970" type="curve" smooth="yes"/>
      <point x="431" y="971"/>
      <point x="431" y="1108"/>
      <point x="431" y="1108" type="curve" smooth="yes"/>
      <point x="430" y="1133"/>
      <point x="423" y="1151"/>
      <point x="415" y="1151" type="curve" smooth="yes"/>
      <point x="413" y="1151"/>
      <point x="398" y="1135"/>
      <point x="394" y="1132" type="curve" smooth="yes"/>
      <point x="393" y="1131"/>
      <point x="130" y="871"/>
      <point x="130" y="870" type="curve" smooth="yes"/>
      <point x="112" y="853"/>
      <point x="108" y="804"/>
      <point x="108" y="759" type="curve" smooth="yes"/>
      <point x="108" y="758"/>
      <point x="108" y="602"/>
      <point x="109" y="601" type="curve" smooth="yes"/>
      <point x="109" y="556"/>
      <point x="127" y="497"/>
      <point x="144" y="479" type="curve" smooth="yes"/>
      <point x="144" y="479"/>
      <point x="409" y="208"/>
    </contour>
  </outline>
</glyph>
<glyph name="product" format="1">
  <advance width="992"/>
  <unicode hex="220F"/>
  <outline>
    <contour>
      <point x="148" y="0" type="curve" smooth="yes"/>
      <point x="350" y="0" type="line" smooth="yes"/>
      <point x="365" y="0"/>
      <point x="376" y="4"/>
      <point x="376" y="47" type="curve" smooth="yes"/>
      <point x="376" y="1215" type="line" smooth="yes"/>
      <point x="376" y="1235"/>
      <point x="382" y="1238"/>
      <point x="388" y="1238" type="curve" smooth="yes"/>
      <point x="604" y="1238" type="line" smooth="yes"/>
      <point x="611" y="1238"/>
      <point x="617" y="1235"/>
      <point x="617" y="1215" type="curve" smooth="yes"/>
      <point x="617" y="47" type="line" smooth="yes"/>
      <point x="617" y="4"/>
      <point x="629" y="0"/>
      <point x="644" y="0" type="curve" smooth="yes"/>
      <point x="845" y="0" type="line" smooth="yes"/>
      <point x="860" y="0"/>
      <point x="871" y="4"/>
      <point x="871" y="47" type="curve" smooth="yes"/>
      <point x="871" y="1391" type="line" smooth="yes"/>
      <point x="871" y="1434"/>
      <point x="860" y="1438"/>
      <point x="845" y="1438" type="curve" smooth="yes"/>
      <point x="148" y="1438" type="line" smooth="yes"/>
      <point x="133" y="1438"/>
      <point x="121" y="1434"/>
      <point x="121" y="1391" type="curve" smooth="yes"/>
      <point x="121" y="47" type="line" smooth="yes"/>
      <point x="121" y="4"/>
      <point x="133" y="0"/>
    </contour>
  </outline>
</glyph>
<glyph name="minus" format="1">
  <advance width="1247"/>
  <unicode hex="2212"/>
  <outline>
    <contour>
      <point x="192" y="569" type="curve" smooth="yes"/>
      <point x="1055" y="569" type="line" smooth="yes"/>
      <point x="1096" y="569"/>
      <point x="1122" y="595"/>
      <point x="1122" y="637" type="curve" smooth="yes"/>
      <point x="1122" y="714" type="line" smooth="yes"/>
      <point x="1122" y="756"/>
      <point x="1096" y="782"/>
      <point x="1055" y="782" type="curve" smooth="yes"/>
      <point x="192" y="782" type="line" smooth="yes"/>
      <point x="151" y="782"/>
      <point x="124" y="756"/>
      <point x="124" y="714" type="curve" smooth="yes"/>
      <point x="124" y="637" type="line" smooth="yes"/>
      <point x="124" y="595"/>
      <point x="151" y="569"/>
    </contour>
  </outline>
</glyph>
<glyph name="lozenge" format="1">
  <advance width="860"/>
  <unicode hex="25CA"/>
  <outline>
    <contour>
      <point x="313" y="-305" type="curve"/>
      <point x="548" y="-305" type="line"/>
      <point x="564" y="-305"/>
      <point x="577" y="-300"/>
      <point x="585" y="-259" type="curve" smooth="yes"/>
      <point x="776" y="565" type="line" smooth="yes"/>
      <point x="776" y="573"/>
      <point x="775" y="599"/>
      <point x="774" y="606" type="curve" smooth="yes"/>
      <point x="581" y="1430" type="line" smooth="yes"/>
      <point x="574" y="1471"/>
      <point x="560" y="1475"/>
      <point x="544" y="1476" type="curve"/>
      <point x="309" y="1476" type="line"/>
      <point x="293" y="1475"/>
      <point x="280" y="1471"/>
      <point x="272" y="1430" type="curve" smooth="yes"/>
      <point x="84" y="606" type="line" smooth="yes"/>
      <point x="84" y="599"/>
      <point x="84" y="573"/>
      <point x="86" y="565" type="curve" smooth="yes"/>
      <point x="276" y="-259" type="line" smooth="yes"/>
      <point x="284" y="-300"/>
      <point x="297" y="-305"/>
    </contour>
    <contour>
      <point x="426" y="-41" type="curve"/>
      <point x="424" y="-41"/>
      <point x="423" y="-38"/>
      <point x="422" y="-32" type="curve"/>
      <point x="307" y="602" type="line" smooth="yes"/>
      <point x="429" y="1203" type="line"/>
      <point x="430" y="1209"/>
      <point x="432" y="1212"/>
      <point x="434" y="1212" type="curve"/>
      <point x="436" y="1212"/>
      <point x="437" y="1209"/>
      <point x="438" y="1202" type="curve" smooth="yes"/>
      <point x="553" y="603" type="line"/>
      <point x="431" y="-33" type="line" smooth="yes"/>
      <point x="430" y="-38"/>
      <point x="428" y="-41"/>
    </contour>
  </outline>
</glyph>
